<svg width="314" height="71" viewBox="0 0 314 71" fill="none" xmlns="http://www.w3.org/2000/svg">
<rect width="314" height="71" rx="20" fill="#690D93"/>
<path d="M135.128 44.384C133.928 44.384 132.752 44.144 131.696 43.64C130.664 43.184 129.704 42.488 128.84 41.576L130.592 39.92C131.888 41.288 133.4 41.984 135.128 41.984C137.192 41.984 138.584 40.856 138.584 39.152V39.104C138.584 38.36 138.416 37.904 137.96 37.52C137.408 37.016 136.376 36.584 134.792 36.224C132.896 35.816 131.672 35.312 130.832 34.616C129.896 33.824 129.464 32.816 129.464 31.472V31.448C129.464 30.824 129.584 30.224 129.848 29.648C130.112 29.096 130.472 28.592 130.928 28.16C131.888 27.296 133.208 26.816 134.648 26.816C135.608 26.816 136.568 27.008 137.456 27.368C138.296 27.704 139.088 28.16 139.808 28.784L138.296 30.632C137.144 29.696 135.92 29.216 134.648 29.216C132.824 29.216 131.864 30.368 131.864 31.448V31.472C131.864 32.264 131.864 33.128 135.32 33.896C137.336 34.352 138.68 34.928 139.568 35.72C140.528 36.56 140.984 37.688 140.984 39.104V39.152C140.984 40.616 140.408 41.96 139.352 42.896C138.272 43.88 136.808 44.384 135.128 44.384ZM154.62 44L152.868 38.888H146.34L144.588 44H142.044L147.828 27.2H151.38L157.164 44H154.62ZM147.036 36.848H152.148L149.604 29.432L147.036 36.848ZM165.909 44H162.357L156.573 27.2H159.117L164.133 41.744L169.149 27.2H171.693L165.909 44ZM184.909 27.2V29.6H176.269V34.52H182.509V36.704H176.269V41.6H184.909V44H173.869V27.2H184.909Z" fill="white"/>
</svg>
