<svg width="227" height="227" viewBox="0 0 227 227" fill="none" xmlns="http://www.w3.org/2000/svg">
<g id="Icon">
<g id="Ellipse 1" filter="url(#filter0_d_215_142)">
<circle cx="103.5" cy="98.5" r="93.5" fill="white" fill-opacity="0.6" shape-rendering="crispEdges"/>
<circle cx="103.5" cy="98.5" r="92" stroke="white" stroke-width="3" shape-rendering="crispEdges"/>
</g>
<g id="Admin">
<path id="Vector" fill-rule="evenodd" clip-rule="evenodd" d="M122.945 78.0788C123.577 69.8371 126.371 61.1968 124.363 53.5467C119.679 42.6189 97.5585 37.4647 86.9265 39.3994C80.2807 50.5814 83.0265 64.3759 84.2487 77.119L122.943 78.0802L122.945 78.0788Z" fill="#592D0D"/>
<path id="Vector_2" fill-rule="evenodd" clip-rule="evenodd" d="M103.482 77.5941V40.4259C112.554 42.5537 121.567 47.019 124.364 53.5454C126.37 61.1954 123.577 69.8358 122.945 78.0775L103.482 77.5941Z" fill="#4A250A"/>
<path id="Vector_3" fill-rule="evenodd" clip-rule="evenodd" d="M103.143 155.401C109.013 155.486 114.789 155.233 120.495 154.635V102.293L118.546 101.441C114.257 99.5636 108.947 97.4052 103.143 96.6163V155.401Z" fill="#B2D8DE"/>
<path id="Vector_4" fill-rule="evenodd" clip-rule="evenodd" d="M103.143 155.401C97.2738 155.486 91.4974 155.233 85.7918 154.635V102.293L87.739 101.441C92.0293 99.5636 97.3391 97.4052 103.143 96.6163V155.401Z" fill="#B2D8DE"/>
<path id="Vector_5" fill-rule="evenodd" clip-rule="evenodd" d="M90.7543 86.3177H115.532V101.264C107.274 107.828 99.0141 108.09 90.7543 101.264V86.3177Z" fill="#E0AC7E"/>
<path id="Vector_6" fill-rule="evenodd" clip-rule="evenodd" d="M92.9404 55.6315C89.4293 54.9453 86.071 58.5356 85.4404 62.0551C84.8626 65.2843 84.4571 68.5954 84.3085 71.9121C84.214 71.8968 84.7293 71.8871 84.021 71.8871C83.3126 71.8871 81.007 72.4107 81.1168 75.4774C81.1973 77.7774 83.1987 84.4594 85.8265 83.3649C89.6335 93.5622 94.7571 99.3178 103.142 101.358C103.284 101.089 103.347 101.296 103.481 101.208V56.7023C100.097 56.7148 96.7155 56.369 92.9404 55.6315Z" fill="#F2C196"/>
<path id="Vector_7" fill-rule="evenodd" clip-rule="evenodd" d="M113.684 55.6315C117.195 54.9453 120.554 58.5356 121.184 62.0551C121.763 65.2843 122.168 68.5954 122.317 71.9121C122.41 71.8968 121.893 71.8871 122.602 71.8871C123.31 71.8871 125.616 72.4107 125.506 75.4774C125.424 77.7774 123.424 84.4594 120.796 83.3649C116.938 93.7011 111.732 99.3928 103.142 101.358V56.7023C106.525 56.7148 109.909 56.369 113.684 55.6315Z" fill="#EBB688"/>
<path id="Vector_8" fill-rule="evenodd" clip-rule="evenodd" d="M103.143 106.286H107.379L105.586 113.01H103.146H103.14H100.7L98.9071 106.286H103.143Z" fill="#FF3705"/>
<path id="Vector_9" fill-rule="evenodd" clip-rule="evenodd" d="M105.586 112.805L107.32 138.244L103.143 145.872L98.9669 138.244L100.7 112.805H105.586Z" fill="#FF5527"/>
<path id="Vector_10" fill-rule="evenodd" clip-rule="evenodd" d="M103.143 106.286L95.8738 113.354L87.739 101.441L90.7529 99.7983C93.796 103.009 97.9696 105.051 103.143 106.286Z" fill="#F0FAFC"/>
<path id="Vector_11" fill-rule="evenodd" clip-rule="evenodd" d="M103.143 145.185L85.3001 102.509C69.1764 109.465 58.8208 114.826 57 135.248C64.3264 148.319 81.8168 159.018 103.142 159L103.143 145.185Z" fill="#096385"/>
<path id="Vector_12" fill-rule="evenodd" clip-rule="evenodd" d="M71.5806 150.126C72.2251 150.579 72.9598 150.946 73.6376 151.372L73.589 142.922L71.5806 150.126Z" fill="#08426A"/>
<path id="Vector_13" fill-rule="evenodd" clip-rule="evenodd" d="M103.143 145.185V155.969L86.3501 125.893L91.3446 119.835L83.7376 117.298L80.3043 104.694L88.6126 101.062L103.143 145.185Z" fill="#0174A3"/>
<path id="Vector_14" fill-rule="evenodd" clip-rule="evenodd" d="M103.143 106.286L110.413 113.354L118.546 101.441L115.532 99.7983C112.488 103.009 108.317 105.051 103.143 106.286Z" fill="#F0FAFC"/>
<path id="Vector_15" fill-rule="evenodd" clip-rule="evenodd" d="M103.143 145.185L120.985 102.509C137.109 109.465 147.464 114.826 149.285 135.248C141.959 148.319 124.468 159.018 103.143 159V145.185Z" fill="#0B5975"/>
<path id="Vector_16" fill-rule="evenodd" clip-rule="evenodd" d="M134.707 150.126C134.061 150.579 133.327 150.946 132.649 151.372L132.698 142.922L134.706 150.128L134.707 150.126Z" fill="#08426A"/>
<path id="Vector_17" fill-rule="evenodd" clip-rule="evenodd" d="M103.143 145.185V155.969L119.936 125.893L114.941 119.835L122.549 117.298L125.982 104.694L117.974 101.129L103.143 145.185Z" fill="#0A6D94"/>
</g>
</g>
<defs>
<filter id="filter0_d_215_142" x="0" y="0" width="227" height="227" filterUnits="userSpaceOnUse" color-interpolation-filters="sRGB">
<feFlood flood-opacity="0" result="BackgroundImageFix"/>
<feColorMatrix in="SourceAlpha" type="matrix" values="0 0 0 0 0 0 0 0 0 0 0 0 0 0 0 0 0 0 127 0" result="hardAlpha"/>
<feOffset dx="10" dy="15"/>
<feGaussianBlur stdDeviation="10"/>
<feComposite in2="hardAlpha" operator="out"/>
<feColorMatrix type="matrix" values="0 0 0 0 0 0 0 0 0 0 0 0 0 0 0 0 0 0 0.25 0"/>
<feBlend mode="normal" in2="BackgroundImageFix" result="effect1_dropShadow_215_142"/>
<feBlend mode="normal" in="SourceGraphic" in2="effect1_dropShadow_215_142" result="shape"/>
</filter>
</defs>
</svg>
