<svg width="16" height="16" viewBox="0 0 16 16" fill="none" xmlns="http://www.w3.org/2000/svg">
<rect width="16" height="16" rx="8" fill="#690D93" fill-opacity="0.8"/>
<path fill-rule="evenodd" clip-rule="evenodd" d="M8.57271 4C8.57271 3.72386 8.34885 3.5 8.07271 3.5C7.79656 3.5 7.57271 3.72386 7.57271 4V10.9384L4.35355 7.71921C4.15829 7.52395 3.84171 7.52395 3.64645 7.71921C3.45118 7.91448 3.45118 8.23106 3.64645 8.42632L7.71917 12.499C7.77845 12.5583 7.84891 12.5996 7.92376 12.6229C7.94759 12.6303 7.97218 12.636 7.99739 12.6398C8.04757 12.6474 8.09868 12.6474 8.14885 12.6397C8.1705 12.6364 8.19169 12.6317 8.21233 12.6257C8.29066 12.603 8.36454 12.5608 8.42628 12.499L12.499 8.42632C12.6943 8.23106 12.6943 7.91448 12.499 7.71921C12.3037 7.52395 11.9872 7.52395 11.7919 7.71921L8.57271 10.9384V4Z" fill="white"/>
</svg>
