<svg width="423" height="408" viewBox="0 0 423 408" fill="none" xmlns="http://www.w3.org/2000/svg">
<path d="M61.8399 374.791C144.292 417.885 277.973 417.887 360.424 374.792C442.876 331.696 442.876 261.826 360.424 218.732C277.972 175.637 144.291 175.637 61.8389 218.731C-20.6131 261.825 -20.6131 331.696 61.8399 374.791Z" fill="#F5F5F5"/>
<path d="M206.17 329.303L209.965 331.494C211.161 332.184 213.099 332.184 214.295 331.494L315.577 273.018C316.773 272.328 316.773 271.208 315.577 270.518L311.783 268.327C310.587 267.637 308.649 267.637 307.453 268.327L206.169 326.803C204.974 327.493 204.974 328.612 206.17 329.303Z" fill="#E0E0E0"/>
<path d="M371.184 321.079C358.643 327.788 338.31 327.788 325.769 321.079C313.228 314.371 313.228 303.494 325.769 296.785C338.31 290.078 358.643 290.078 371.184 296.785C383.725 303.494 383.725 314.371 371.184 321.079Z" fill="#E0E0E0"/>
<path d="M363.422 280.912C363.422 280.912 364.578 270.746 369.634 262.857C374.691 254.967 381.639 250.043 388.122 249.531C394.605 249.018 399.841 254.983 392.904 259.079C385.968 263.175 373.644 267.355 367.972 282.674L363.422 280.912Z" fill="#690D93"/>
<path opacity="0.1" d="M363.422 280.912C363.422 280.912 364.578 270.746 369.634 262.857C374.691 254.967 381.639 250.043 388.122 249.531C394.605 249.018 399.841 254.983 392.904 259.079C385.968 263.175 373.644 267.355 367.972 282.674L363.422 280.912Z" fill="black"/>
<path d="M365.323 278.272C365.3 278.268 365.277 278.262 365.255 278.252C365.078 278.18 364.992 277.978 365.065 277.801C371.906 260.952 384.93 253.917 390.861 252.551C391.047 252.507 391.233 252.625 391.276 252.811C391.319 252.998 391.203 253.183 391.016 253.226C385.206 254.564 372.439 261.477 365.705 278.061C365.642 278.216 365.48 278.301 365.323 278.272Z" fill="white"/>
<path d="M399.953 278.471C399.366 279.794 397.922 280.483 396.577 281.025C395.24 281.562 393.775 282.147 393.048 283.399C391.585 285.926 393.987 289.48 392.416 291.941C391.757 292.973 390.531 293.516 389.325 293.733C388.324 293.92 387.304 293.919 386.288 294.004C385.799 293.994 385.316 293.958 384.844 293.892C383.45 293.69 381.939 293.625 380.662 294.338C378.653 295.467 378.036 298.003 376.816 299.959C375.353 302.301 372.767 303.834 370.05 304.204C369.147 304.323 367.468 304.486 366.549 303.973C366.477 303.933 366.417 303.896 366.359 303.852C366.353 303.851 366.347 303.843 366.342 303.836C366.216 303.694 366.057 303.512 365.989 303.414C365.972 303.398 365.963 303.376 365.953 303.355C365.597 302.044 366.178 300.68 366.201 299.327C366.203 299.241 366.205 299.162 366.199 299.082C366.143 297.508 366.099 295.944 366.062 294.374C365.989 291.486 365.956 288.591 365.976 285.7C365.996 283.822 365.77 281.767 366.564 279.998C367.444 278.053 369.631 278.01 370.458 276.101C370.789 275.34 370.965 274.525 371.285 273.755C372.242 271.499 374.559 269.877 377.012 269.757C380.83 269.563 384.258 272.655 388.072 272.374C389.06 272.297 390.022 271.996 390.996 271.817C394.089 271.238 397.664 272.118 399.404 274.736C400.133 275.828 400.484 277.27 399.953 278.471Z" fill="#690D93"/>
<path d="M365.641 297.338C365.632 297.336 365.624 297.334 365.615 297.332C365.442 297.286 365.338 297.107 365.385 296.933C370.661 277.136 391.52 274.275 396.4 274.628C396.577 274.642 396.714 274.797 396.702 274.976C396.689 275.155 396.533 275.29 396.354 275.278C391.58 274.933 371.178 277.732 366.015 297.102C365.97 297.267 365.807 297.368 365.641 297.338Z" fill="white"/>
<path d="M388.817 287.306C388.754 287.294 388.693 287.264 388.645 287.215C388.593 287.162 383.273 281.918 374.45 283.216C374.272 283.24 374.106 283.119 374.08 282.941C374.054 282.763 374.177 282.597 374.355 282.571C383.519 281.224 389.053 286.701 389.108 286.756C389.235 286.884 389.233 287.09 389.106 287.217C389.026 287.295 388.918 287.325 388.817 287.306Z" fill="white"/>
<path d="M226.625 186.808V196.768L54.0548 296.388V296.398L48.7448 299.458C46.5048 298.168 44.6848 294.878 44.6848 292.118V124.328C44.6848 124.048 44.7848 123.748 44.9348 123.478C45.0948 123.208 45.3148 122.968 45.5548 122.828L84.8848 100.118C85.3648 99.8481 88.1647 101.018 88.6247 101.298L88.9248 101.468C89.1548 101.608 89.4048 101.828 89.6148 102.078C89.8448 102.348 90.0348 102.638 90.1148 102.908L93.6748 113.188L221.695 36.9281C222.155 36.6681 222.895 36.6581 223.375 36.8981L225.755 38.2781C225.995 38.4181 226.205 38.6481 226.365 38.9181C226.525 39.1881 226.615 39.4981 226.615 39.7781V74.8181L226.625 186.808Z" fill="#8C6C10"/>
<path d="M226.625 196.768L48.7448 299.458V125.668L89.6147 102.078C89.8447 102.348 90.0347 102.638 90.1147 102.908L93.6747 113.188L94.3548 115.138L226.365 38.9182C226.525 39.1882 226.615 39.4982 226.615 39.7782L226.625 196.768Z" fill="#C49A18"/>
<path d="M89.6148 102.078L48.7448 125.668L44.9348 123.477C45.0948 123.207 45.3148 122.967 45.5548 122.827L84.8848 100.117C85.3648 99.8473 86.1348 99.8473 86.5948 100.127L88.9248 101.468C89.1548 101.608 89.4048 101.828 89.6148 102.078Z" fill="#E0B027"/>
<path d="M226.365 38.9182L94.3548 115.138L93.6747 113.188L221.695 36.9272C222.155 36.6672 222.895 36.6572 223.375 36.8972L225.755 38.2782C225.995 38.4182 226.205 38.6482 226.365 38.9182Z" fill="#E0B027"/>
<path d="M103.395 228.789C102.377 228.201 101.552 226.709 101.552 225.456V60.1961C101.552 58.9431 102.432 57.4191 103.517 56.7931L201.139 0.491053C202.224 -0.134947 203.929 -0.166947 204.947 0.421053C205.965 1.00905 206.79 2.50105 206.79 3.75405L206.791 169.014C206.791 170.267 205.911 171.791 204.826 172.417L107.203 228.719C106.118 229.345 104.413 229.376 103.395 228.789Z" fill="#FAFAFA"/>
<path d="M107.203 228.718L204.826 172.416C205.911 171.79 206.791 170.266 206.791 169.013L206.79 3.75298C206.79 2.49998 205.91 1.99198 204.825 2.61898L107.202 58.921C106.117 59.547 105.237 61.071 105.237 62.324L105.238 227.584C105.238 228.837 106.118 229.345 107.203 228.718Z" fill="#F0F0F0"/>
<path d="M117.901 65.4811L191.614 22.9221C192.571 22.3701 193.346 22.8171 193.346 23.9221V24.6121C193.346 25.7171 192.571 27.0601 191.614 27.6121L117.899 70.1711C116.943 70.7231 116.167 70.2751 116.168 69.1711V68.4811C116.168 67.3771 116.944 66.0341 117.901 65.4811Z" fill="#E0E0E0"/>
<path d="M117.901 77.194L191.614 34.635C192.571 34.083 193.346 34.531 193.346 35.635V36.326C193.346 37.43 192.571 38.774 191.614 39.326L117.899 81.885C116.943 82.437 116.167 81.99 116.168 80.885V80.195C116.168 79.089 116.944 77.746 117.901 77.194Z" fill="#E0E0E0"/>
<path d="M117.901 88.9061L191.614 46.3471C192.571 45.7951 193.346 46.2421 193.346 47.3471V48.0371C193.346 49.1421 192.571 50.4851 191.614 51.0371L117.899 93.5961C116.943 94.1481 116.167 93.7011 116.168 92.5961V91.9061C116.168 90.8021 116.944 89.4591 117.901 88.9061Z" fill="#E0E0E0"/>
<path d="M117.901 100.619L191.614 58.06C192.571 57.508 193.346 57.955 193.346 59.06V59.75C193.346 60.855 192.571 62.198 191.614 62.75L117.899 105.309C116.943 105.861 116.167 105.414 116.168 104.309V103.619C116.168 102.514 116.944 101.171 117.901 100.619Z" fill="#E0E0E0"/>
<path d="M117.901 112.331L191.614 69.7722C192.571 69.2202 193.346 69.6672 193.346 70.7722V71.4622C193.346 72.5672 192.571 73.9102 191.614 74.4622L117.899 117.021C116.943 117.573 116.167 117.126 116.168 116.021V115.331C116.168 114.227 116.944 112.884 117.901 112.331Z" fill="#E0E0E0"/>
<path d="M117.901 124.129L191.614 81.57C192.571 81.018 193.346 81.465 193.346 82.57V83.26C193.346 84.365 192.571 85.708 191.614 86.26L117.899 128.819C116.943 129.371 116.167 128.924 116.168 127.819V127.129C116.168 126.025 116.944 124.682 117.901 124.129Z" fill="#E0E0E0"/>
<path d="M117.901 135.842L191.614 93.2831C192.571 92.7311 193.346 93.1781 193.346 94.2831V94.9731C193.346 96.0781 192.571 97.4211 191.614 97.9731L117.899 140.532C116.943 141.084 116.167 140.636 116.168 139.532V138.842C116.168 137.737 116.944 136.394 117.901 135.842Z" fill="#E0E0E0"/>
<path d="M117.901 147.554L191.614 104.995C192.571 104.443 193.346 104.89 193.346 105.995V106.686C193.346 107.791 192.571 109.134 191.614 109.686L117.899 152.245C116.943 152.797 116.167 152.35 116.168 151.245V150.555C116.168 149.45 116.944 148.107 117.901 147.554Z" fill="#E0E0E0"/>
<path d="M117.901 159.267L191.614 116.708C192.571 116.156 193.346 116.603 193.346 117.708V118.398C193.346 119.503 192.571 120.846 191.614 121.398L117.899 163.957C116.943 164.509 116.167 164.062 116.168 162.957V162.267C116.168 161.162 116.944 159.819 117.901 159.267Z" fill="#E0E0E0"/>
<path d="M117.901 170.979L191.614 128.42C192.571 127.868 193.346 128.315 193.346 129.42V130.11C193.346 131.215 192.571 132.558 191.614 133.11L117.899 175.669C116.943 176.221 116.167 175.774 116.168 174.669V173.979C116.168 172.875 116.944 171.531 117.901 170.979Z" fill="#E0E0E0"/>
<path d="M117.901 182.743L191.614 140.184C192.571 139.632 193.346 140.079 193.346 141.184V141.875C193.346 142.979 192.571 144.323 191.614 144.875L117.899 187.434C116.943 187.986 116.167 187.539 116.168 186.434V185.744C116.168 184.639 116.944 183.296 117.901 182.743Z" fill="#E0E0E0"/>
<path d="M117.901 194.456L191.614 151.897C192.571 151.345 193.346 151.792 193.346 152.897V153.587C193.346 154.692 192.571 156.035 191.614 156.587L117.899 199.146C116.943 199.698 116.167 199.251 116.168 198.146V197.456C116.168 196.351 116.944 195.008 117.901 194.456Z" fill="#E0E0E0"/>
<path d="M117.901 206.168L191.614 163.609C192.571 163.057 193.346 163.505 193.346 164.609V165.3C193.346 166.405 192.571 167.748 191.614 168.3L117.899 210.859C116.943 211.411 116.167 210.964 116.168 209.859V209.169C116.168 208.064 116.944 206.72 117.901 206.168Z" fill="#E0E0E0"/>
<path d="M106.946 228.847C105.866 229.347 104.336 229.337 103.396 228.787C102.376 228.197 101.556 226.707 101.556 225.457V60.199C101.556 59.569 101.776 58.879 102.126 58.259L105.816 60.389C105.456 60.999 105.236 61.699 105.236 62.319V227.587C105.237 228.737 105.987 229.257 106.946 228.847Z" fill="#E0E0E0"/>
<path d="M117.214 236.629C116.196 236.041 115.371 234.549 115.371 233.296V68.0361C115.371 66.7831 116.251 65.2591 117.336 64.6331L214.958 8.33114C216.043 7.70514 217.748 7.67314 218.766 8.26114C219.784 8.84914 220.609 10.3411 220.609 11.5941L220.61 176.854C220.61 178.107 219.73 179.631 218.645 180.257L121.022 236.559C119.937 237.185 118.232 237.216 117.214 236.629Z" fill="#FAFAFA"/>
<path d="M121.022 236.559L218.645 180.257C219.73 179.631 220.61 178.107 220.61 176.854L220.609 11.5941C220.609 10.3411 219.729 9.83305 218.644 10.46L121.021 66.7621C119.936 67.3881 119.056 68.9121 119.056 70.1651L119.057 235.425C119.057 236.677 119.937 237.185 121.022 236.559Z" fill="#F0F0F0"/>
<path d="M131.72 73.3221L205.433 30.7631C206.39 30.2111 207.165 30.6581 207.165 31.7631V32.4531C207.165 33.5581 206.39 34.9011 205.433 35.4531L131.718 78.0121C130.761 78.5641 129.986 78.1171 129.987 77.0121V76.3221C129.987 75.2171 130.763 73.8741 131.72 73.3221Z" fill="#E0E0E0"/>
<path d="M131.72 85.0341L205.433 42.4751C206.39 41.9231 207.165 42.3711 207.165 43.4751V44.1651C207.165 45.2701 206.39 46.6131 205.433 47.1651L131.718 89.7241C130.761 90.2761 129.986 89.8291 129.987 88.7241V88.0341C129.987 86.9301 130.763 85.5861 131.72 85.0341Z" fill="#E0E0E0"/>
<path d="M131.72 96.7472L205.433 54.1882C206.39 53.6362 207.165 54.0832 207.165 55.1882V55.8782C207.165 56.9822 206.39 58.3262 205.433 58.8782L131.718 101.437C130.761 101.989 129.986 101.542 129.987 100.437V99.7472C129.987 98.6422 130.763 97.2992 131.72 96.7472Z" fill="#E0E0E0"/>
<path d="M131.72 108.459L205.433 65.9001C206.39 65.3481 207.165 65.7951 207.165 66.9001V67.5901C207.165 68.6951 206.39 70.0381 205.433 70.5901L131.718 113.149C130.761 113.701 129.986 113.253 129.987 112.149V111.459C129.987 110.355 130.763 109.011 131.72 108.459Z" fill="#E0E0E0"/>
<path d="M131.72 120.172L205.433 77.613C206.39 77.061 207.165 77.509 207.165 78.613V79.304C207.165 80.409 206.39 81.752 205.433 82.304L131.718 124.863C130.761 125.415 129.986 124.968 129.987 123.863V123.173C129.987 122.067 130.763 120.724 131.72 120.172Z" fill="#E0E0E0"/>
<path d="M131.72 131.97L205.433 89.4111C206.39 88.8591 207.165 89.3061 207.165 90.4111V91.1011C207.165 92.2061 206.39 93.5491 205.433 94.1011L131.718 136.66C130.761 137.212 129.986 136.765 129.987 135.66V134.97C129.987 133.865 130.763 132.522 131.72 131.97Z" fill="#E0E0E0"/>
<path d="M131.72 143.682L205.433 101.123C206.39 100.571 207.165 101.018 207.165 102.123V102.813C207.165 103.918 206.39 105.261 205.433 105.813L131.718 148.372C130.761 148.924 129.986 148.477 129.987 147.372V146.682C129.987 145.577 130.763 144.234 131.72 143.682Z" fill="#E0E0E0"/>
<path d="M131.72 155.394L205.433 112.835C206.39 112.283 207.165 112.73 207.165 113.835V114.525C207.165 115.63 206.39 116.973 205.433 117.525L131.718 160.084C130.761 160.636 129.986 160.189 129.987 159.084V158.394C129.987 157.29 130.763 155.947 131.72 155.394Z" fill="#E0E0E0"/>
<path d="M131.72 167.107L205.433 124.548C206.39 123.996 207.165 124.443 207.165 125.548V126.239C207.165 127.343 206.39 128.687 205.433 129.239L131.718 171.798C130.761 172.35 129.986 171.903 129.987 170.798V170.108C129.987 169.002 130.763 167.659 131.72 167.107Z" fill="#E0E0E0"/>
<path d="M131.72 178.819L205.433 136.26C206.39 135.708 207.165 136.155 207.165 137.26V137.95C207.165 139.055 206.39 140.398 205.433 140.95L131.718 183.509C130.761 184.061 129.986 183.613 129.987 182.509V181.819C129.987 180.715 130.763 179.372 131.72 178.819Z" fill="#E0E0E0"/>
<path d="M131.72 190.583L205.433 148.024C206.39 147.472 207.165 147.919 207.165 149.024V149.714C207.165 150.819 206.39 152.162 205.433 152.714L131.718 195.273C130.761 195.825 129.986 195.378 129.987 194.273V193.583C129.987 192.479 130.763 191.136 131.72 190.583Z" fill="#E0E0E0"/>
<path d="M131.72 202.296L205.433 159.737C206.39 159.185 207.165 159.632 207.165 160.737V161.427C207.165 162.532 206.39 163.875 205.433 164.427L131.718 206.986C130.761 207.538 129.986 207.09 129.987 205.986V205.296C129.987 204.191 130.763 202.848 131.72 202.296Z" fill="#E0E0E0"/>
<path d="M131.72 214.008L205.433 171.449C206.39 170.897 207.165 171.344 207.165 172.449V173.139C207.165 174.244 206.39 175.587 205.433 176.139L131.718 218.698C130.761 219.25 129.986 218.803 129.987 217.698V217.008C129.987 215.904 130.763 214.561 131.72 214.008Z" fill="#E0E0E0"/>
<path d="M120.765 236.687C119.685 237.187 118.155 237.177 117.215 236.627C116.195 236.037 115.375 234.547 115.375 233.297V68.0401C115.375 67.4101 115.595 66.7201 115.945 66.1001L119.635 68.2301C119.275 68.8401 119.055 69.5401 119.055 70.1601V235.428C119.056 236.577 119.806 237.097 120.765 236.687Z" fill="#E0E0E0"/>
<path d="M262.955 59.3781L234.435 182.878L231.805 194.238C231.185 196.928 228.745 200.228 226.355 201.608L57.1348 299.308C56.0148 299.958 54.5748 300.318 53.1348 300.378C51.5348 300.448 49.9248 300.148 48.7448 299.458L49.6147 295.688C49.6447 295.568 49.6748 295.448 49.7048 295.318L50.6547 291.188L54.7947 273.268L81.0147 159.728C81.0447 159.588 81.1047 159.448 81.1747 159.308C81.2447 159.178 81.3247 159.048 81.4047 158.928C81.4147 158.908 81.4347 158.888 81.4447 158.868C81.6447 158.608 81.8747 158.388 82.1047 158.248L226.615 74.8182L258.245 56.5581C258.725 56.2781 259.505 56.2781 259.985 56.5581L262.315 57.8981C262.785 58.1781 263.075 58.8381 262.955 59.3781Z" fill="#C49A18"/>
<path d="M262.985 59.1281C262.965 58.7781 262.705 58.6681 262.315 58.8981L86.1648 160.598C85.9348 160.728 85.6948 160.958 85.5048 161.218L81.4448 158.868C81.6448 158.608 81.8748 158.388 82.1048 158.248L258.245 56.5581C258.725 56.2781 259.505 56.2781 259.985 56.5581L262.315 57.8981C262.715 58.1381 262.985 58.6481 262.985 59.1281Z" fill="#E0B027"/>
<path d="M85.5047 161.218C85.3847 161.378 85.2848 161.548 85.2048 161.708C85.1447 161.838 85.1047 161.958 85.0747 162.068L60.0047 270.648H59.9948L54.7147 293.528L54.0547 296.388V296.398L53.1348 300.378C51.5348 300.448 49.9248 300.148 48.7448 299.458L49.6147 295.688C49.6447 295.568 49.6748 295.448 49.7048 295.318L50.6547 291.188L54.7947 273.268L81.0147 159.728C81.0447 159.588 81.1047 159.448 81.1747 159.308C81.2447 159.178 81.3247 159.048 81.4047 158.928C81.4147 158.908 81.4347 158.888 81.4447 158.868L85.5047 161.218Z" fill="#8C6C10"/>
<path d="M54.9488 288.972C55.3778 289.219 55.5938 289.718 55.4828 290.2L54.0548 296.388V296.398L53.3378 299.5C53.2148 300.034 52.7238 300.403 52.1768 300.376C50.9078 300.313 49.6888 300.011 48.7448 299.459C46.5048 298.169 44.6848 294.879 44.6848 292.119V284.998C44.6848 284.131 45.6228 283.59 46.3738 284.023L48.1828 285.068C48.5308 285.269 48.7448 285.643 48.7448 286.045V289.584C48.7448 290.924 50.6658 291.143 50.9668 289.837L51.2688 288.528C51.4388 287.791 52.2738 287.428 52.9288 287.807L54.9488 288.972Z" fill="#8C6C10"/>
<path d="M92.3048 262.58L82.6738 257.021C82.6738 257.021 82.6638 257.021 82.6538 257.021L82.5538 256.961L82.5438 256.981C77.7548 254.277 71.1898 254.676 63.9158 258.877C57.1108 262.798 50.9058 269.343 46.2258 276.916C40.8178 285.636 37.4158 295.733 37.4158 304.783C37.4158 313.224 40.3688 319.151 45.1488 321.924V321.934L45.1788 321.944L54.9568 327.529C59.7858 330.607 66.6038 330.335 74.1668 325.968C88.8058 317.516 100.674 296.962 100.675 280.058C100.675 271.257 97.4538 265.19 92.3048 262.58Z" fill="#690D93"/>
<path opacity="0.1" d="M54.7668 327.42L45.1768 321.94L45.1468 321.93V321.92C40.3668 319.15 37.4168 313.22 37.4168 304.78C37.4168 295.73 40.8168 285.64 46.2268 276.92L56.4568 282.82C51.0468 291.54 47.6568 301.62 47.6568 310.66C47.6558 318.73 50.3558 324.5 54.7668 327.42Z" fill="black"/>
<path opacity="0.4" d="M92.1058 262.47C87.3858 260.18 81.0858 260.76 74.1658 264.75C67.3558 268.69 61.1458 275.24 56.4558 282.82L46.2258 276.92C50.9058 269.34 57.1158 262.8 63.9158 258.88C71.1858 254.68 77.7558 254.28 82.5458 256.98L82.5558 256.96L82.6558 257.02C82.6658 257.02 82.6758 257.02 82.6758 257.02L92.1058 262.47Z" fill="white"/>
<path d="M77.8308 298.087V307.384C77.8308 307.842 77.7228 308.3 77.5068 308.757C77.2908 309.215 77.0338 309.529 76.7368 309.701L71.6288 312.65C71.3308 312.822 71.0748 312.804 70.8588 312.595C70.6428 312.387 70.5348 312.055 70.5348 311.596V302.299L64.2518 305.927C63.9538 306.099 63.6978 306.081 63.4818 305.872C63.2648 305.665 63.1578 305.332 63.1578 304.874V298.57C63.1578 298.113 63.2658 297.656 63.4818 297.197C63.6978 296.74 63.9548 296.425 64.2518 296.253L70.5348 292.625V283.328C70.5348 282.871 70.6428 282.413 70.8588 281.955C71.0748 281.497 71.3318 281.183 71.6288 281.011L76.7368 278.062C77.0338 277.89 77.2908 277.909 77.5068 278.117C77.7228 278.325 77.8308 278.658 77.8308 279.115V288.414L84.0738 284.81C84.3708 284.638 84.6278 284.657 84.8438 284.865C85.0598 285.074 85.1678 285.407 85.1678 285.864V292.168C85.1678 292.626 85.0598 293.084 84.8438 293.541C84.6278 293.999 84.3708 294.313 84.0738 294.485L77.8308 298.087Z" fill="white"/>
<path d="M334.863 153.601L323.18 153.277C322.394 152.605 310.124 138.756 310.124 138.756C310.124 138.756 305.708 145.724 305.634 146.167C305.56 146.611 317.666 159.557 318.863 160.863C319.526 161.586 320.133 162.164 321.72 162.26C324.886 162.45 336.741 163.283 336.741 163.283L334.863 153.601Z" fill="#F9B78A"/>
<path d="M210.097 329.122C209.079 328.534 208.254 327.042 208.254 325.789V170.364C208.254 169.111 209.134 167.587 210.219 166.961L307.841 110.659C308.926 110.033 310.631 110.001 311.649 110.589C312.667 111.177 313.492 112.669 313.492 113.922L313.493 269.348C313.493 270.601 312.613 272.124 311.528 272.751L213.905 329.053C212.82 329.678 211.116 329.71 210.097 329.122Z" fill="#9747FF"/>
<path opacity="0.15" d="M213.36 329.274C213.42 329.264 213.49 329.244 213.56 329.214C213.52 329.244 213.47 329.264 213.42 329.274C213.31 329.324 213.19 329.354 213.06 329.394C213 329.414 212.93 329.424 212.86 329.444C212.71 329.474 212.56 329.504 212.41 329.514C212.24 329.534 212.06 329.544 211.89 329.544C211.23 329.544 210.59 329.404 210.1 329.124C209.72 328.904 209.36 328.554 209.07 328.134C208.58 327.454 208.26 326.574 208.26 325.794V170.364C208.26 170.044 208.31 169.724 208.41 169.394C208.46 169.224 208.52 169.064 208.59 168.904C208.66 168.734 208.74 168.584 208.83 168.424L212.51 170.554H212.52C212.49 170.604 212.46 170.654 212.43 170.704C212.13 171.274 211.94 171.914 211.94 172.484V327.924C211.94 328.144 211.97 328.344 212.02 328.514C212.1 328.774 212.23 328.974 212.4 329.114C212.52 329.204 212.65 329.264 212.8 329.304C212.87 329.314 212.95 329.324 213.03 329.324C213.12 329.324 213.21 329.314 213.3 329.284C213.32 329.294 213.34 329.284 213.36 329.274Z" fill="black"/>
<path opacity="0.3" d="M313.46 113.554C313.3 112.574 312.5 112.224 311.53 112.784L213.9 169.084C213.36 169.404 212.87 169.944 212.51 170.554L208.83 168.424C209.18 167.814 209.67 167.274 210.22 166.964L307.84 110.654C308.93 110.034 310.63 110.004 311.65 110.584C312.57 111.114 313.33 112.384 313.46 113.554Z" fill="white"/>
<path d="M224.603 175.65L298.316 133.091C299.273 132.539 300.048 132.986 300.048 134.091V134.781C300.048 135.886 299.272 137.229 298.316 137.781L224.601 180.34C223.644 180.892 222.869 180.445 222.87 179.34V178.65C222.871 177.545 223.646 176.202 224.603 175.65Z" fill="#FAFAFA"/>
<path d="M224.603 189.98L298.316 147.421C299.273 146.869 300.048 147.316 300.048 148.421V149.112C300.048 150.216 299.272 151.56 298.316 152.112L224.601 194.671C223.644 195.223 222.869 194.776 222.87 193.671V192.981C222.871 191.876 223.646 190.532 224.603 189.98Z" fill="#FAFAFA"/>
<path d="M224.603 204.311L298.316 161.752C299.273 161.2 300.048 161.647 300.048 162.752V163.442C300.048 164.547 299.272 165.89 298.316 166.442L224.601 209.001C223.644 209.553 222.869 209.105 222.87 208.001V207.311C222.871 206.206 223.646 204.863 224.603 204.311Z" fill="#FAFAFA"/>
<path d="M224.603 218.641L298.316 176.082C299.273 175.53 300.048 175.977 300.048 177.082V177.773C300.048 178.878 299.272 180.221 298.316 180.773L224.601 223.332C223.644 223.884 222.869 223.437 222.87 222.332V221.642C222.871 220.537 223.646 219.193 224.603 218.641Z" fill="#FAFAFA"/>
<path d="M224.603 232.972L298.316 190.413C299.273 189.861 300.048 190.308 300.048 191.413V192.103C300.048 193.208 299.272 194.551 298.316 195.103L224.601 237.662C223.644 238.214 222.869 237.767 222.87 236.662V235.972C222.871 234.867 223.646 233.524 224.603 232.972Z" fill="#FAFAFA"/>
<path d="M224.603 247.302L298.316 204.743C299.273 204.191 300.048 204.638 300.048 205.743V206.433C300.048 207.538 299.272 208.881 298.316 209.433L224.601 251.992C223.644 252.544 222.869 252.097 222.87 250.992V250.302C222.871 249.198 223.646 247.854 224.603 247.302Z" fill="#FAFAFA"/>
<path d="M224.603 261.633L298.316 219.074C299.273 218.522 300.048 218.969 300.048 220.074V220.764C300.048 221.869 299.272 223.212 298.316 223.764L224.601 266.323C223.644 266.875 222.869 266.428 222.87 265.323V264.633C222.871 263.528 223.646 262.185 224.603 261.633Z" fill="#FAFAFA"/>
<path d="M224.603 275.963L298.316 233.404C299.273 232.852 300.048 233.299 300.048 234.404V235.095C300.048 236.199 299.272 237.543 298.316 238.095L224.601 280.654C223.644 281.206 222.869 280.759 222.87 279.654V278.964C222.871 277.858 223.646 276.515 224.603 275.963Z" fill="#FAFAFA"/>
<path d="M224.603 290.293L298.316 247.734C299.273 247.182 300.048 247.629 300.048 248.734V249.424C300.048 250.529 299.272 251.872 298.316 252.424L224.601 294.983C223.644 295.535 222.869 295.088 222.87 293.983V293.293C222.871 292.189 223.646 290.846 224.603 290.293Z" fill="#FAFAFA"/>
<path d="M224.603 304.624L298.316 262.065C299.273 261.513 300.048 261.96 300.048 263.065V263.755C300.048 264.86 299.272 266.203 298.316 266.755L224.601 309.314C223.644 309.866 222.869 309.419 222.87 308.314V307.624C222.871 306.519 223.646 305.176 224.603 304.624Z" fill="#FAFAFA"/>
<path d="M337.041 151.575H350.915C360.824 151.575 368.857 143.542 368.857 133.633C368.857 124.847 361.735 117.725 352.949 117.725C344.163 117.725 337.041 124.847 337.041 133.633V151.575Z" fill="#515151"/>
<path d="M365.278 123.993L369.129 121.926C368.583 120.823 367.277 120.391 366.214 120.962C365.151 121.533 364.731 122.89 365.278 123.993Z" fill="#515151"/>
<path d="M365.038 124.43L369.132 125.961C369.601 124.823 369.065 123.557 367.934 123.134C366.804 122.711 365.507 123.291 365.038 124.43Z" fill="#515151"/>
<path d="M351.333 164.808L332.007 163.971C330.295 161.623 330.342 155.409 332.062 153.423L353.454 154.007L351.333 164.808Z" fill="#176EAF"/>
<path d="M339.558 284.727C339.719 286.752 339.715 287.357 339.715 288.612C339.715 289.867 339.715 296.225 339.715 296.225H346.338V291.759C346.338 289.74 346.503 287.725 346.832 285.733L339.558 284.727Z" fill="#F9B78A"/>
<path d="M339.712 292.961V292.014C339.524 293.458 335.41 298.873 332.783 301.269C330.694 303.174 327.844 305.375 327.119 307.499C326.365 309.709 330.486 310.583 333.187 310.313C336.349 309.997 338.816 308.097 339.985 306.756C341.704 304.785 342.118 303.483 342.92 302.398C343.722 301.313 347.321 299.094 347.755 297.838C347.993 297.148 347.71 295.638 347.376 294.361C347.069 293.19 346.736 291.903 346.336 292.012C346.335 292.155 346.336 292.734 346.336 292.734C345.855 293.267 344.525 293.796 343.025 293.853C342.054 293.892 339.704 293.699 339.712 292.961Z" fill="#515151"/>
<path d="M346.334 292.735C345.854 293.268 344.523 293.797 343.023 293.854C342.054 293.891 339.703 293.699 339.711 292.96V292.013C339.522 293.457 335.409 298.871 332.782 301.268C332.282 301.724 331.737 302.198 331.19 302.683C330.079 303.921 330.394 305.001 333.005 305.226C335.616 305.451 337.912 303.876 339.893 301.444C341.875 299.013 346.334 292.735 346.334 292.735Z" fill="#F9B78A"/>
<path d="M359.785 295.941C359.913 297.544 359.92 299.217 359.942 299.932V307.545H366.565V303.079C366.565 301.06 366.73 299.045 367.059 297.053L359.785 295.941Z" fill="#F9B78A"/>
<path d="M359.939 304.28V303.333C359.751 304.777 355.637 310.192 353.01 312.588C350.921 314.493 348.071 316.694 347.346 318.818C346.592 321.028 350.713 321.902 353.414 321.632C356.576 321.316 359.043 319.416 360.212 318.076C361.931 316.105 362.345 314.803 363.147 313.718C363.949 312.633 367.548 310.414 367.982 309.158C368.22 308.468 367.937 306.958 367.603 305.681C367.296 304.51 366.963 303.223 366.563 303.332C366.562 303.475 366.563 304.054 366.563 304.054C366.082 304.587 364.752 305.116 363.252 305.173C362.281 305.212 359.931 305.019 359.939 304.28Z" fill="#515151"/>
<path d="M366.561 304.055C366.081 304.588 364.75 305.117 363.25 305.174C362.281 305.211 359.93 305.019 359.939 304.28V303.333C359.75 304.777 355.637 310.191 353.009 312.588C352.509 313.044 351.965 313.518 351.417 314.003C350.306 315.241 350.621 316.321 353.232 316.546C355.843 316.771 358.139 315.196 360.12 312.764C362.102 310.333 366.561 304.055 366.561 304.055Z" fill="#F9B78A"/>
<path d="M339.558 287.867C338.141 276.193 335.816 256.016 335.136 251.608C334.505 247.52 336.091 212.572 337.059 201.48L371.553 199.632C374.179 210.874 371.622 226.031 370.724 235.499C369.849 244.713 368.766 255.483 368.766 255.483C368.766 255.483 371.461 264.87 370.747 272.345C370.293 277.051 368.179 291.267 367.174 297.343C365.395 298.446 362.107 298.628 359.606 297.243C359.721 298.533 358.377 281.506 357.582 274.626C356.478 265.073 356.062 258.109 355.083 252.535C353.851 245.578 353.424 218.315 353.424 218.315L349.45 249.241C349.45 249.241 350.077 253.448 350.077 259.289C350.077 266.192 347.529 281.895 346.727 287.759C344.984 288.97 341.462 289.345 339.558 287.867Z" fill="#176EAF"/>
<path d="M353.423 218.315C353.423 218.315 347.12 216.104 343.53 212.808C343.53 212.808 345.974 217.028 350.922 219.271L350.974 237.377L353.423 218.315Z" fill="#115F8E"/>
<path d="M358.444 154.152C358.444 154.152 367.814 155.229 368.935 155.733C363.224 161.986 369.303 167.165 369.303 167.165L364.961 186.301C368.708 191.097 370.849 194.792 371.745 200.508C367.731 207.581 345.178 208.564 336.913 203.293C337.632 193.42 339.236 186.352 338.702 183.388C334.763 171.265 335.99 168.724 336.359 165.956C337.08 160.548 342.448 155.833 345.515 153.858C345.515 153.858 347.812 153.858 348.376 153.858L358.444 154.152Z" fill="#F0F0F0"/>
<path d="M342.267 125.513C340.587 126.506 338.51 130.732 338.715 139.592C338.889 147.101 341.323 148.956 342.545 149.49C343.767 150.025 346.124 149.699 348.416 149.317V153.824C348.416 153.824 345.249 157.502 345.448 159.569C345.647 161.636 350.021 162.124 352.984 160.105C355.947 158.086 358.444 154.152 358.444 154.152L358.392 143.79C358.392 143.79 359.741 145.1 362.027 143.101C363.915 141.451 364.551 138.667 363.08 137.174C361.609 135.681 358.89 136.087 357.847 138.217C357.847 138.217 356.573 134.68 351.296 132.955C346.527 131.396 343.935 129.602 342.267 125.513Z" fill="#F9B78A"/>
<path d="M347.608 137.706C347.581 138.247 347.981 138.706 348.502 138.731C349.023 138.756 349.467 138.337 349.494 137.796C349.521 137.255 349.121 136.796 348.6 136.772C348.079 136.746 347.635 137.165 347.608 137.706Z" fill="#515151"/>
<path d="M347.356 144.071L345.163 144.77C345.345 145.398 345.983 145.75 346.589 145.557C347.195 145.364 347.538 144.699 347.356 144.071Z" fill="#E09D70"/>
<path d="M339.866 134.806L341.777 133.482C341.428 132.936 340.718 132.791 340.19 133.156C339.662 133.522 339.517 134.261 339.866 134.806Z" fill="#515151"/>
<path d="M350.356 135.505L348.445 134.181C348.794 133.635 349.504 133.49 350.032 133.855C350.56 134.221 350.704 134.96 350.356 135.505Z" fill="#515151"/>
<path d="M340.306 137.023C340.279 137.564 340.679 138.022 341.2 138.047C341.721 138.072 342.165 137.653 342.192 137.112C342.219 136.571 341.819 136.112 341.298 136.088C340.778 136.063 340.334 136.482 340.306 137.023Z" fill="#515151"/>
<path d="M344.761 136.482L344.611 142.166L341.619 141.24L344.761 136.482Z" fill="#E09D70"/>
<path d="M348.415 149.318C350.83 149.001 355.798 147.574 356.572 145.61C356.572 145.61 356.314 146.844 354.83 148.116C353.346 149.388 348.415 150.821 348.415 150.821V149.318Z" fill="#E09D70"/>
<path d="M366.899 177.755L358.907 189.423L364.96 186.301L366.899 177.755Z" fill="#E0E0E0"/>
<path d="M363.198 158.282C360.992 160.565 344.45 177.676 344.45 177.676C344.45 177.676 326.039 175.86 319.786 174.072C317.816 173.509 316.223 170.809 315.789 168.539C315.355 166.269 313.599 166.029 313.599 166.029V170.57C313.44 171.72 312.878 172.315 311.234 172.352C304.912 172.491 301.984 170.57 301.213 174.004C300.722 176.194 301.675 178.689 305.851 179.834C311.707 181.438 314.941 180.637 318.509 181.522C321.26 182.204 340.442 185.853 344.214 186.677C346.209 187.113 347.729 186.975 349.894 184.832C352.059 182.688 368.338 167.5 368.338 167.5C373.309 162.532 371.855 157.368 369.076 155.841C367.337 154.881 365.404 155.999 363.198 158.282Z" fill="#F9B78A"/>
<path d="M368.935 155.733C370.15 156.225 371.63 157.51 371.745 160.855C371.86 164.2 369.396 167.233 366.486 170.712C363.577 174.191 362.701 175.112 362.701 175.112C362.701 175.112 355.333 172.437 354.087 166.961C354.087 166.961 359.633 161.09 361.298 159.206C362.963 157.32 366.017 154.438 368.935 155.733Z" fill="#176EAF"/>
<path d="M330.934 29.1891L337.886 33.2031C337.852 32.8931 337.827 32.5841 337.827 32.2831V30.2691C337.827 26.6851 340.343 25.2321 343.447 27.0241C344.704 27.7501 345.86 28.9001 346.796 30.2451C347.304 25.7381 350.84 24.0601 355.134 26.5391C359.777 29.2201 363.542 35.7401 363.542 41.1011V44.1141C363.542 45.5031 363.285 46.6721 362.83 47.6041L368.604 50.9381C370.326 51.9321 371.721 54.3491 371.721 56.3371C371.721 58.3251 370.325 59.1311 368.604 58.1371L330.933 36.3881C329.211 35.3941 327.816 32.9771 327.816 30.9891C327.817 29.0011 329.213 28.1951 330.934 29.1891Z" fill="#EBEBEB"/>
<path d="M301.185 49.444L306.431 52.473C306.405 52.239 306.387 52.006 306.387 51.778V50.258C306.387 47.553 308.286 46.457 310.628 47.809C311.577 48.357 312.449 49.224 313.156 50.24C313.54 46.839 316.208 45.572 319.449 47.443C322.953 49.466 325.794 54.387 325.794 58.433V60.707C325.794 61.755 325.6 62.638 325.257 63.341L329.615 65.857C330.914 66.607 331.968 68.432 331.968 69.932C331.968 71.432 330.915 72.041 329.615 71.29L301.184 54.876C299.885 54.126 298.831 52.301 298.831 50.801C298.832 49.302 299.885 48.694 301.185 49.444Z" fill="#EBEBEB"/>
</svg>
