<svg width="457" height="408" viewBox="0 0 457 408" fill="none" xmlns="http://www.w3.org/2000/svg">
<path d="M443.595 295.107C436.124 278.113 421.776 263.933 404.54 256.953C386.588 249.683 365.974 252.33 347.065 249.894C330.642 247.779 318.793 240.448 308.987 227.413C299.591 214.923 291.167 201.091 275.804 195.314C263.665 190.749 249.865 192.014 237.8 196.771C215.57 205.536 198.779 224.174 184.638 242.741C171.727 259.693 161.196 278.256 137.315 278.861C113.419 279.467 90.6689 265.836 66.6083 269.448C34.8085 274.222 8.32596 300.694 2.77625 332.209C-2.42472 361.746 10.6264 390.393 33.0475 407.224H418.43C446.683 377.253 461.508 335.851 443.595 295.107Z" fill="#E4EEF4"/>
<path d="M95.2148 407.225H96.275C103.637 399.133 109.405 389.313 113.071 378.413C119.005 360.771 118.755 342.257 112.367 326.28C109.138 318.206 104.476 310.681 99.9678 303.403C95.3952 296.023 90.6676 288.391 87.4586 280.213C86.1318 276.832 85.1517 273.201 84.5621 269.497C84.2964 269.462 84.0304 269.433 83.7645 269.401C84.3569 273.238 85.3646 276.998 86.7373 280.496C89.9714 288.74 94.7182 296.402 99.3088 303.812C103.8 311.061 108.444 318.557 111.647 326.567C117.967 342.374 118.212 360.699 112.336 378.166C108.625 389.202 102.737 399.113 95.2148 407.225Z" fill="white"/>
<path d="M416.568 373.615C424.509 375.307 432.161 376.824 439.561 377.779C439.688 377.535 439.811 377.289 439.936 377.044C432.475 376.095 424.751 374.566 416.73 372.857C404.517 370.255 391.298 367.438 378.187 367.438C370.07 367.438 361.994 368.518 354.225 371.397C351.281 372.488 348.445 373.871 345.745 375.519C338.73 372.53 331.679 369.266 324.692 365.683C329.762 361.864 334.884 358.125 340.061 354.51C378.493 327.674 413.961 312.459 448.227 308.141C448.158 307.89 448.086 307.639 448.015 307.388C413.658 311.742 378.112 326.995 339.618 353.874C334.331 357.566 329.1 361.387 323.928 365.289C316.071 361.23 308.31 356.769 300.797 351.847C287.171 342.919 270.963 330.175 256.809 313.243C311.661 307.089 367.506 299.336 413.11 268.856C414.842 267.699 416.761 266.334 418.748 264.786C418.528 264.629 418.306 264.476 418.084 264.322C416.18 265.797 414.343 267.1 412.68 268.211C367.087 298.683 311.139 306.377 256.216 312.53C246.213 300.432 237.277 286.221 231.066 269.77C221.392 244.144 221.903 218.995 232.468 200.774C232.926 199.982 233.411 199.203 233.91 198.432C233.469 198.635 233.032 198.845 232.595 199.055C232.323 199.495 232.056 199.938 231.797 200.385C221.115 218.809 220.584 244.198 230.341 270.043C236.518 286.405 245.375 300.56 255.296 312.632C252.117 312.987 248.936 313.339 245.766 313.688C234.329 314.951 222.502 316.256 211.018 317.734C206.826 318.274 202.564 318.904 198.322 319.692C189.229 300.502 179.242 281.78 166.33 265.724C166.146 265.908 165.958 266.087 165.771 266.268C178.572 282.202 188.498 300.784 197.535 319.84C179.035 323.369 161.07 330.001 151.479 345.439C142.521 359.857 142.529 379.785 151.503 404.673C151.813 405.533 152.133 406.382 152.457 407.225H153.287C152.932 406.303 152.579 405.371 152.232 404.41C143.343 379.757 143.311 360.054 152.138 345.848C161.615 330.594 179.481 324.05 197.878 320.564C201.088 327.354 204.189 334.2 207.271 341.004L207.606 341.744C218.309 365.371 229.378 388.172 243.873 407.225H244.84C230.214 388.137 219.082 365.199 208.312 341.425L207.977 340.684C204.922 333.938 201.847 327.15 198.666 320.417C202.825 319.648 207.006 319.032 211.118 318.503C222.595 317.026 234.418 315.721 245.851 314.459C249.19 314.09 252.537 313.721 255.887 313.346C270.176 330.544 286.59 343.465 300.372 352.495C307.803 357.364 315.477 361.783 323.242 365.807C310.059 375.778 297.236 386.269 284.716 396.513C280.381 400.059 275.996 403.643 271.576 407.225H272.805C276.974 403.843 281.114 400.461 285.207 397.112C297.815 386.798 310.729 376.232 324.006 366.202C330.953 369.776 337.965 373.034 344.942 376.019C335.397 382.09 327.618 391.49 322.915 402.905C322.326 404.334 321.811 405.777 321.335 407.225H322.151C322.601 405.876 323.082 404.532 323.631 403.2C328.348 391.754 336.192 382.363 345.81 376.389C365.314 384.675 384.482 390.826 400.953 395.699L401.573 395.882C408.514 397.935 415.613 400.038 421.892 403.416C422.068 403.216 422.244 403.016 422.418 402.815C416.037 399.353 408.833 397.221 401.792 395.139L401.173 394.956C384.869 390.132 365.921 384.056 346.627 375.893C349.141 374.397 351.771 373.133 354.495 372.124C374.601 364.673 396.897 369.424 416.568 373.615Z" fill="white"/>
<path d="M34.9901 323.417C38.413 337.427 36.886 352.558 30.8 364.93C26.8139 373.034 21.0574 380.371 13.9671 386.671C14.1081 386.891 14.2523 387.108 14.3955 387.326C21.6008 380.942 27.4491 373.499 31.4956 365.273C37.6607 352.74 39.2087 337.417 35.7428 323.233C33.035 312.15 27.5916 302.763 20.071 295.971C19.9033 296.168 19.7369 296.366 19.5713 296.565C26.9667 303.252 32.3224 312.498 34.9901 323.417Z" fill="white"/>
<path d="M210.388 145.93C217.139 152.829 220.165 164.451 216.442 175.166C212.838 185.542 204.937 194.136 195.444 199.661C187.806 204.106 177.843 206.558 170.332 201.903C164.718 198.424 161.808 191.6 161.646 184.998C161.484 178.396 163.704 171.962 166.448 165.956C170.316 157.489 175.522 149.278 183.277 144.129C193.966 137.032 203.898 139.299 210.388 145.93Z" fill="#F4E4E9"/>
<path d="M120.897 24.9738H64.9942V0H120.897V24.9738ZM66.1566 23.8114H119.735V1.16245H66.1566V23.8114Z" fill="#E9DDCA"/>
<path d="M84.5293 48.8567H28.6261V23.8828H84.5293V48.8567ZM29.7886 47.6942H83.3668V25.0453H29.7886V47.6942Z" fill="#E9DDCA"/>
<path d="M438.975 75.4677C435.355 63.4312 428.988 52.3804 419.874 42.2773C410.742 32.1742 398.286 23.834 382.508 17.2378C366.73 10.6412 346.683 7.34326 322.366 7.34326C302.969 7.34326 283.2 9.95894 263.06 15.1906C242.901 20.4412 225.415 27.9094 210.584 37.6145L229.889 90.6158L219.542 98.9976L234.548 103.407C249.361 95.6547 262.855 90.0253 275.032 86.5184C287.191 83.0308 300.11 81.2868 313.809 81.2868C327.489 81.2868 337.847 84.585 344.882 91.1813C351.917 97.7967 355.425 105.739 355.425 115.065C355.425 126.324 351.806 136.313 344.604 145.051C337.364 153.79 329.383 162.623 320.64 171.551C314.57 177.749 308.667 184.156 302.969 190.752C297.27 197.367 292.221 204.438 287.859 212.02C283.478 219.583 279.97 227.734 277.315 236.472C274.642 245.21 273.325 255.01 273.325 265.871C273.325 269.378 273.399 273.548 273.603 278.401C273.637 279.296 273.684 280.169 273.738 281.03H259.552L275.032 291.499H350.303C349.913 289.167 349.727 286.457 349.727 283.348C349.727 280.239 349.727 277.908 349.727 276.354C349.727 269.757 351.064 263.256 353.718 256.849C356.373 250.442 359.714 244.339 363.705 238.5C367.696 232.681 372.151 227.146 377.107 221.915C382.044 216.664 386.797 211.717 391.363 207.054C397.433 200.856 403.707 194.259 410.167 187.265C416.626 180.271 422.343 172.916 427.281 165.145C432.218 157.373 436.302 148.938 439.532 139.802C442.762 130.684 444.395 120.695 444.395 109.815C444.395 98.9529 442.576 87.5042 438.975 75.4677Z" fill="#E4261A"/>
<path d="M297.874 77.5894C284.335 77.5894 271.568 79.277 259.552 82.6525C247.518 86.0462 234.182 91.4946 219.542 98.9975L195.86 35.3239C210.517 25.9316 227.797 18.7039 247.72 13.6223C267.623 8.55926 287.16 6.02759 306.33 6.02759C330.361 6.02759 350.174 9.21954 365.766 15.6034C381.359 21.9873 393.668 30.0588 402.694 39.8364C411.701 49.614 417.993 60.3089 421.57 71.9576C425.129 83.6063 426.927 94.6865 426.927 105.198C426.927 115.728 425.312 125.395 422.121 134.219C418.929 143.061 414.893 151.224 410.013 158.745C405.134 166.267 399.484 173.384 393.1 180.153C386.716 186.923 380.516 193.307 374.517 199.305C370.004 203.818 365.308 208.606 360.428 213.687C355.53 218.75 351.128 224.107 347.183 229.739C343.239 235.389 339.937 241.296 337.314 247.496C334.691 253.696 333.37 259.989 333.37 266.372C333.37 267.877 333.37 270.133 333.37 273.142C333.37 276.15 333.553 278.773 333.939 281.03H259.552C258.782 277.269 258.323 273.05 258.139 268.354C257.938 263.658 257.864 259.622 257.864 256.228C257.864 245.717 259.167 236.233 261.808 227.776C264.431 219.319 267.898 211.431 272.228 204.111C276.539 196.774 281.528 189.931 287.16 183.529C292.792 177.145 298.625 170.945 304.624 164.946C313.264 156.306 321.153 147.757 328.307 139.301C335.424 130.844 339.002 121.176 339.002 110.279C339.002 101.254 335.535 93.5678 328.582 87.1656C321.629 80.7814 311.393 77.5894 297.874 77.5894Z" fill="#FB5529"/>
<path d="M355.454 364.561C355.454 378.132 351.061 388.603 342.274 395.99C333.488 403.392 323.558 407.078 312.47 407.078C301.367 407.078 291.437 403.392 282.651 395.99C273.88 388.603 269.487 378.132 269.487 364.561C269.487 351.006 273.88 340.534 282.651 333.132C296.176 321.719 316.185 319.175 332.02 327.186C346.071 334.294 355.454 348.729 355.454 364.561Z" fill="#E4261A"/>
<path d="M340.729 364.561C340.729 378.132 336.336 388.603 327.55 395.99C318.764 403.392 308.834 407.078 297.746 407.078C286.643 407.078 276.713 403.392 267.927 395.99C259.155 388.603 254.762 378.132 254.762 364.561C254.762 351.006 259.155 340.534 267.927 333.132C276.713 325.745 286.642 322.044 297.746 322.044C308.834 322.044 318.764 325.745 327.55 333.132C336.336 340.534 340.729 351.006 340.729 364.561Z" fill="#FB5529"/>
<path d="M117.895 172.165C118.72 167.765 115.821 163.529 111.421 162.705C107.02 161.88 102.785 164.779 101.96 169.179C101.135 173.579 104.034 177.815 108.434 178.64C112.835 179.464 117.071 176.566 117.895 172.165Z" fill="#D3DFFF"/>
<path d="M121.773 187.404C122.237 184.929 120.592 182.544 118.1 182.077C115.607 181.61 113.211 183.237 112.747 185.712C112.283 188.187 113.928 190.572 116.42 191.039C118.912 191.506 121.309 189.879 121.773 187.404Z" fill="#D3DFFF"/>
<path d="M112.491 152.436C124.955 139.972 124.955 119.763 112.491 107.299C100.027 94.8351 79.8182 94.8351 67.3541 107.299C54.89 119.763 54.89 139.972 67.3541 152.436C79.8182 164.9 100.027 164.9 112.491 152.436Z" fill="#D3DFFF"/>
<path d="M77.6698 133.889C79.8907 133.889 81.691 132.089 81.691 129.868C81.691 127.647 79.8907 125.847 77.6698 125.847C75.449 125.847 73.6487 127.647 73.6487 129.868C73.6487 132.089 75.449 133.889 77.6698 133.889Z" fill="white"/>
<path d="M89.9252 133.889C92.1461 133.889 93.9464 132.089 93.9464 129.868C93.9464 127.647 92.1461 125.847 89.9252 125.847C87.7044 125.847 85.9041 127.647 85.9041 129.868C85.9041 132.089 87.7044 133.889 89.9252 133.889Z" fill="white"/>
<path d="M102.18 133.889C104.401 133.889 106.201 132.089 106.201 129.868C106.201 127.647 104.401 125.847 102.18 125.847C99.9594 125.847 98.1591 127.647 98.1591 129.868C98.1591 132.089 99.9594 133.889 102.18 133.889Z" fill="white"/>
<path d="M67.0611 391.101L70.0432 402.597C70.821 405.595 73.7197 407.621 76.9268 407.403C86.7047 406.739 107.021 404.343 118.681 395.749L115.366 379.18C99.3343 378.274 84.3411 379.166 71.3588 383.536C68.1083 384.631 66.2282 387.889 67.0611 391.101Z" fill="#102048"/>
<path d="M85.7468 400.252C85.5773 400.252 85.4217 400.14 85.3736 399.969L81.3695 385.632C81.3119 385.426 81.4324 385.212 81.6386 385.155C81.846 385.098 82.0586 385.218 82.1163 385.424L86.1204 399.761C86.1777 399.967 86.0574 400.18 85.8513 400.238C85.8163 400.248 85.7809 400.252 85.7468 400.252Z" fill="white"/>
<path d="M94.4005 398.315C94.2309 398.315 94.0753 398.203 94.0272 398.031L90.0231 383.695C89.9658 383.488 90.0861 383.275 90.2922 383.217C90.4999 383.159 90.7122 383.28 90.7699 383.486L94.774 397.823C94.8316 398.029 94.7111 398.243 94.5049 398.301C94.4699 398.31 94.4349 398.315 94.4005 398.315Z" fill="white"/>
<path d="M104.451 328.955L67.1895 340.014L94.8618 377.929L134.589 381.089L189.385 357.918L168.563 326.585L104.451 328.955Z" fill="#FBC343"/>
<path d="M150.389 334.221C232.218 309.997 245.369 382.318 117.694 395.483C113.184 390.409 107.914 381.603 105.821 374.243L173.245 343.086L150.389 334.221Z" fill="#FBC343"/>
<path d="M153.864 386.052C150.038 384.827 146.37 382.406 146.37 382.406L133.219 386.531L136.233 400.837L149.894 403.613C154.056 396 154.299 389.75 153.864 386.052Z" fill="#F9B384"/>
<path d="M106.113 374.746L105.529 373.741C119.595 365.566 155.624 345.927 186.32 340.135L186.536 341.278C156.016 347.036 120.127 366.601 106.113 374.746Z" fill="#E49B31"/>
<path d="M104.451 328.955C28.2842 314.474 8.55753 387.672 136.233 400.837C140.743 395.763 144.278 389.766 146.37 382.406C126.758 369.283 104.83 356.811 80.7973 344.929L104.451 328.955Z" fill="#FBC343"/>
<path d="M146.058 382.896C142.435 380.59 138.66 378.152 134.663 375.571C114.598 362.617 91.8565 347.934 72.5349 339.561L72.9971 338.494C92.4067 346.905 115.191 361.616 135.293 374.595C139.288 377.175 143.062 379.611 146.682 381.915L146.058 382.896Z" fill="#E49B31"/>
<path d="M48.5679 365.249L47.5505 364.687C50.4096 359.511 54.989 356.02 61.1615 354.311L61.4718 355.431C55.529 357.076 51.3082 360.288 48.5679 365.249Z" fill="#E49B31"/>
<path d="M207.54 360.842C204.799 355.882 200.579 352.67 194.636 351.024L194.946 349.904C201.119 351.613 205.698 355.104 208.557 360.28L207.54 360.842Z" fill="#E49B31"/>
<path d="M129.101 400.194L128.251 399.401C134.344 392.875 138.086 385.987 139.691 378.341L140.829 378.58C139.179 386.439 135.342 393.509 129.101 400.194Z" fill="#E49B31"/>
<path d="M191.851 381.791C182.093 375.762 163.175 386.18 158.426 386.706C157.041 386.86 155.44 386.557 153.865 386.053C154.299 389.751 154.056 396 149.895 403.613L152.215 404.084C152.215 404.084 168.258 409.965 185.276 406.542C200.984 403.382 199.523 386.531 191.851 381.791Z" fill="#102048"/>
<path d="M178.549 401.511C178.511 401.511 178.472 401.505 178.433 401.493C178.229 401.429 178.115 401.211 178.18 401.007C179.339 397.336 179.845 390.114 176.487 385.264C176.365 385.088 176.409 384.846 176.585 384.725C176.761 384.602 177.002 384.646 177.124 384.823C180.641 389.902 180.124 397.424 178.919 401.24C178.867 401.406 178.714 401.511 178.549 401.511Z" fill="white"/>
<path d="M170.897 402.965C170.858 402.965 170.819 402.959 170.78 402.947C170.576 402.882 170.463 402.665 170.527 402.461C171.687 398.79 172.193 391.567 168.834 386.717C168.713 386.541 168.757 386.3 168.932 386.178C169.108 386.056 169.349 386.1 169.471 386.276C172.988 391.355 172.471 398.877 171.266 402.694C171.214 402.859 171.061 402.965 170.897 402.965Z" fill="white"/>
<path d="M90.9761 234.575C90.9761 234.575 110.158 218.264 109.448 215.164C108.941 212.949 103.507 216.197 103.507 216.197C103.507 216.197 111.127 207.156 110.74 206.058C110.047 204.096 104.777 207.753 104.777 207.753C104.777 207.753 108.339 202.626 106.636 201.79C104.933 200.955 101.22 204.115 101.22 204.115C101.22 204.115 103.389 201.268 102.37 200.521C101.351 199.774 96.9539 202.845 96.9539 202.845C96.9539 202.845 98.5317 199.255 95.1799 200.616C91.828 201.977 68.3247 223.546 68.3247 223.546L90.9761 234.575Z" fill="#F9B384"/>
<path d="M98.8244 215.229C98.7311 215.229 98.6375 215.195 98.5631 215.127C95.2704 212.119 93.8187 211.388 90.186 210.271C89.9814 210.208 89.8667 209.991 89.9296 209.787C89.9925 209.582 90.2092 209.467 90.4138 209.53C94.1777 210.688 95.6808 211.444 99.086 214.555C99.2441 214.699 99.255 214.945 99.1108 215.102C99.0343 215.186 98.9295 215.229 98.8244 215.229Z" fill="#E28B6D"/>
<path d="M93.045 224.076C93.027 224.076 93.009 224.075 92.9911 224.072C92.779 224.043 92.6312 223.847 92.6609 223.635C93.0379 220.938 93.8869 219.252 95.2567 218.482C96.4276 217.823 97.9512 217.891 99.7853 218.683C99.9819 218.768 100.072 218.996 99.9875 219.192C99.9028 219.389 99.6747 219.48 99.4782 219.394C97.8783 218.703 96.586 218.624 95.6365 219.158C94.5078 219.792 93.7648 221.335 93.4284 223.742C93.4012 223.936 93.2353 224.076 93.045 224.076Z" fill="#E28B6D"/>
<path d="M92.1404 207.769C92.0375 207.769 91.9346 207.728 91.8583 207.647C91.7114 207.492 91.7189 207.246 91.8745 207.1L96.6879 202.563C96.8436 202.416 97.0888 202.424 97.2357 202.579C97.3826 202.735 97.3752 202.98 97.2196 203.127L92.4061 207.664C92.3314 207.735 92.2359 207.769 92.1404 207.769Z" fill="#E28B6D"/>
<path d="M96.5965 209.319C96.4998 209.319 96.4034 209.284 96.328 209.211C96.1737 209.063 96.1687 208.818 96.3169 208.663L100.94 203.846C101.089 203.691 101.334 203.686 101.488 203.835C101.643 203.983 101.648 204.228 101.5 204.383L96.8761 209.2C96.7998 209.279 96.6982 209.319 96.5965 209.319Z" fill="#E28B6D"/>
<path d="M101.149 212.032C101.055 212.032 100.96 211.997 100.885 211.927C100.729 211.781 100.72 211.536 100.866 211.38L104.493 207.488C104.64 207.333 104.884 207.324 105.041 207.469C105.198 207.615 105.206 207.86 105.06 208.017L101.433 211.908C101.356 211.99 101.253 212.032 101.149 212.032Z" fill="#E28B6D"/>
<path d="M163.438 343.677L93.3029 346.39L85.5532 282.455C85.5532 282.455 109.033 260.185 118.066 251.984L133.316 251.201C180.629 272.708 172.882 299.568 163.438 343.677Z" fill="#3A6BEA"/>
<path d="M133.316 251.201C133.316 251.201 187.446 255.83 204.511 292.917C221.209 329.205 152.588 342.127 152.588 342.127L133.316 251.201Z" fill="#3A6BEA"/>
<path d="M71.4413 259.149L93.8097 231.928L72.8924 219.251C64.1668 225.319 47.2936 239.06 32.9942 254.622C29.8379 258.057 27.3726 262.068 26.1308 266.486C25.0712 270.256 24.8787 273.979 25.4742 277.625C27.0263 287.128 34.5013 294.461 44.4795 295.63C53.0014 296.627 85.5529 294.08 111.902 286.33L119.652 256.419C115.669 254.159 86.0727 253.767 71.4413 259.149Z" fill="#3A6BEA"/>
<g opacity="0.8">
<path d="M178.489 265.919C178.606 265.893 178.722 265.866 178.839 265.839C178.594 265.694 178.349 265.554 178.104 265.411C174.137 266.325 170.044 267.258 166.009 267.745C163.584 268.037 155.483 268.572 153.116 263.174C151.938 260.489 152.829 257.502 154.161 255.406C153.967 255.35 153.774 255.295 153.581 255.24C152.217 257.46 151.341 260.576 152.584 263.407C155.111 269.173 163.553 268.626 166.079 268.321C170.23 267.821 174.428 266.855 178.489 265.919Z" fill="white"/>
<path d="M203.751 307.747C201.165 306.748 198.493 305.715 195.685 305.98C190.758 306.445 186.543 311.317 186.287 316.839C186.113 320.604 187.551 324.551 190.293 328.022C190.459 327.918 190.623 327.814 190.787 327.71C188.106 324.337 186.699 320.508 186.868 316.866C187.111 311.622 191.09 306.998 195.739 306.558C198.41 306.311 200.902 307.269 203.541 308.289C204.483 308.653 205.441 309.019 206.414 309.331C206.464 309.144 206.513 308.956 206.558 308.767C205.61 308.462 204.673 308.103 203.751 307.747Z" fill="white"/>
<path d="M67.1241 289.262C63.7447 286.467 58.4935 285.72 52.72 287.212C47.5745 288.543 43.1596 291.179 40.1267 294.668C40.326 294.733 40.5207 294.805 40.7228 294.864C43.6736 291.555 47.9238 289.053 52.865 287.775C58.4556 286.328 63.519 287.035 66.754 289.71C68.2916 290.981 69.3787 292.631 70.1688 294.413C70.3685 294.39 70.5687 294.367 70.7696 294.344C69.9425 292.428 68.7897 290.639 67.1241 289.262Z" fill="white"/>
<path d="M36.573 250.82C42.9054 249.247 49.0847 247.037 54.7841 243.754C56.9376 242.514 59.3695 240.932 61.0797 238.61C62.899 236.139 63.5035 233.197 62.6969 230.742C62.3804 229.779 61.8202 228.933 61.12 228.255C60.9718 228.376 60.8221 228.499 60.673 228.621C61.3267 229.244 61.8506 230.028 62.1445 230.923C62.8925 233.2 62.3196 235.945 60.6119 238.265C58.9656 240.501 56.5957 242.04 54.4943 243.25C49.1185 246.347 43.3037 248.489 37.3309 250.036C37.0777 250.296 36.8253 250.558 36.573 250.82Z" fill="white"/>
</g>
<path d="M138.27 236.987L138.26 237.979L138.103 253.395L138.083 255.065C138.054 257.679 136.983 260.047 135.253 261.766C133.534 263.476 131.166 264.547 128.543 264.566C123.257 264.596 118.934 260.351 118.885 255.055L118.698 236.004L138.27 236.987Z" fill="#F9B384"/>
<path d="M138.26 237.98L138.103 253.395C129.535 249.907 126.008 240.632 126.008 240.632L138.26 237.98Z" fill="#102048"/>
<path d="M141.65 211.078C144.72 214.763 153.685 235.642 144.597 242.765C134.37 250.78 118.806 237.607 118.806 237.607L116.718 213.289L130.228 209.728L141.65 211.078Z" fill="#F9B384"/>
<path d="M109.835 209.739C109.835 209.739 79.8699 225.368 104.303 270.418C107.441 276.204 114.392 278.73 120.338 275.907C126.717 272.878 129.132 265.086 125.668 258.933C121.672 251.833 117.814 242.69 119.461 235.887L109.835 209.739Z" fill="#102048"/>
<path d="M118.393 222.868C121.559 219.702 121.559 214.57 118.393 211.404C115.228 208.239 110.096 208.239 106.93 211.404C103.765 214.57 103.765 219.702 106.93 222.868C110.096 226.033 115.228 226.033 118.393 222.868Z" fill="#FBC343"/>
<path d="M122.637 226.877C121.761 221.82 121.227 218.352 126.339 215.745C126.339 215.745 144.351 219.02 147.79 212.225C151.229 205.429 145.989 194.703 135.018 202.154C106.934 196.668 103.168 222.95 111.683 231.711L120.087 230.421C121.778 230.162 122.929 228.562 122.637 226.877Z" fill="#102048"/>
<path d="M136.583 228.089C137.245 228.089 137.781 227.552 137.781 226.891C137.781 226.23 137.245 225.694 136.583 225.694C135.922 225.694 135.386 226.23 135.386 226.891C135.386 227.552 135.922 228.089 136.583 228.089Z" fill="#102048"/>
<path d="M144.689 224.097C145.351 224.097 145.887 223.56 145.887 222.899C145.887 222.238 145.351 221.702 144.689 221.702C144.028 221.702 143.492 222.238 143.492 222.899C143.492 223.56 144.028 224.097 144.689 224.097Z" fill="#102048"/>
<path d="M143.86 230.576C143.776 230.576 143.692 230.545 143.627 230.483C143.491 230.354 143.486 230.139 143.615 230.004C144.095 229.498 144.621 228.787 144.4 228.272C144.17 227.737 143.2 227.506 142.755 227.506C141.8 227.506 141.341 225.806 141.259 225.465C141.215 225.284 141.327 225.1 141.509 225.057C141.69 225.011 141.874 225.124 141.918 225.306C142.092 226.024 142.487 226.828 142.755 226.828C143.212 226.828 144.611 227.044 145.023 228.005C145.318 228.691 145.009 229.52 144.106 230.471C144.039 230.541 143.95 230.576 143.86 230.576Z" fill="#102048"/>
<path d="M143.921 235.12C143.856 235.12 143.79 235.102 143.732 235.062C141.477 233.541 139.201 234.817 139.178 234.83C139.016 234.923 138.809 234.868 138.715 234.705C138.622 234.543 138.677 234.335 138.84 234.242C138.948 234.18 141.51 232.744 144.111 234.5C144.266 234.605 144.307 234.816 144.203 234.971C144.137 235.068 144.03 235.12 143.921 235.12Z" fill="#102048"/>
<path d="M136.059 221.704C136.74 222.987 135.553 223.244 134.162 223.983C132.771 224.722 131.347 224.992 131.022 224.381C130.697 223.769 131.561 222.674 132.952 221.935C134.343 221.196 135.532 220.712 136.059 221.704Z" fill="#102048"/>
<path d="M141.132 219.39C141.431 220.535 142.284 220.033 143.526 219.708C144.767 219.384 145.77 218.76 145.627 218.214C145.484 217.668 144.362 217.489 143.121 217.814C141.879 218.138 140.9 218.504 141.132 219.39Z" fill="#102048"/>
<path opacity="0.4" d="M133.463 235.073C134.897 233.751 134.987 231.517 133.665 230.083C132.343 228.65 130.109 228.559 128.675 229.882C127.241 231.204 127.151 233.438 128.473 234.871C129.796 236.305 132.03 236.395 133.463 235.073Z" fill="#EB5D60"/>
<path d="M121.95 235.792C123.563 233.701 122.945 230.519 120.569 228.686C118.193 226.853 114.959 227.061 113.346 229.152C111.732 231.243 112.35 234.425 114.726 236.258C117.102 238.092 120.336 237.883 121.95 235.792Z" fill="#F9B384"/>
<path d="M119.749 234.263C119.561 234.263 119.409 234.112 119.409 233.924C119.409 232.923 118.922 231.998 118.104 231.449C117.406 230.979 116.572 230.869 115.876 231.152C115.703 231.222 115.505 231.14 115.434 230.966C115.363 230.793 115.447 230.595 115.62 230.524C116.526 230.155 117.596 230.29 118.483 230.886C119.488 231.561 120.088 232.697 120.088 233.924C120.088 234.112 119.936 234.263 119.749 234.263Z" fill="#102048"/>
<path d="M71.1519 258.875L58.9171 272.11L59.4861 272.636L71.721 259.401L71.1519 258.875Z" fill="#102048"/>
<path d="M157.351 315.764L157.125 315.023C166.032 312.308 174.676 309.06 182.509 299.264L183.114 299.748C175.143 309.717 166.379 313.013 157.351 315.764Z" fill="#102048"/>
<path d="M162.766 285.753H86.9996C84.2748 285.753 82.0659 288.143 82.0659 291.091V345.186C82.0659 348.133 84.2748 350.523 86.9996 350.523H162.766C165.491 350.523 167.7 348.133 167.7 345.186V291.091C167.7 288.143 165.491 285.753 162.766 285.753Z" fill="#D3DFFF"/>
<path d="M128.883 314.719C129.17 314.719 129.403 314.971 129.403 315.283V320.994C129.403 321.305 129.17 321.557 128.883 321.557H120.883C120.595 321.557 120.362 321.305 120.362 320.994V315.283C120.362 314.971 120.595 314.719 120.883 314.719H128.883ZM128.883 313.169H120.883C119.741 313.169 118.812 314.117 118.812 315.283V320.994C118.812 322.159 119.741 323.107 120.883 323.107H128.883C130.024 323.107 130.953 322.159 130.953 320.994V315.283C130.953 314.117 130.024 313.169 128.883 313.169Z" fill="#1F3C88"/>
<path d="M456.821 406.45H0V408H456.821V406.45Z" fill="#102048"/>
</svg>
