<svg width="273" height="56" viewBox="0 0 273 56" fill="none" xmlns="http://www.w3.org/2000/svg">
<rect width="272.997" height="55.9967" rx="20" fill="#690D93"/>
<path fill-rule="evenodd" clip-rule="evenodd" d="M40.9984 17C40.9984 16.4477 40.5507 16 39.9984 16C39.4461 16 38.9984 16.4477 38.9984 17V26.9984H29C28.4477 26.9984 28 27.4462 28 27.9984C28 28.5507 28.4477 28.9984 29 28.9984H38.9984V38.9967C38.9984 39.549 39.4461 39.9967 39.9984 39.9967C40.5507 39.9967 40.9984 39.549 40.9984 38.9967V28.9984H50.9967C51.549 28.9984 51.9967 28.5507 51.9967 27.9984C51.9967 27.4462 51.549 26.9984 50.9967 26.9984H40.9984V17Z" fill="white"/>
<path d="M76.7647 36.4983L75.0127 31.3863H68.4847L66.7327 36.4983H64.1887L69.9727 19.6983H73.5247L79.3087 36.4983H76.7647ZM69.1807 29.3463H74.2927L71.7487 21.9303L69.1807 29.3463ZM87.5764 19.6983C92.1844 19.6983 95.9764 23.4903 95.9764 28.0983C95.9764 32.7303 92.1844 36.4983 87.5764 36.4983H81.5764V19.6983H87.5764ZM87.6244 34.0983C90.8884 34.0983 93.5764 31.4103 93.5764 28.1463V28.0503C93.5764 24.7863 90.8884 22.0983 87.6244 22.0983H83.9764V34.0983H87.6244ZM105.178 19.6983C109.786 19.6983 113.578 23.4903 113.578 28.0983C113.578 32.7303 109.786 36.4983 105.178 36.4983H99.1779V19.6983H105.178ZM105.226 34.0983C108.49 34.0983 111.178 31.4103 111.178 28.1463V28.0503C111.178 24.7863 108.49 22.0983 105.226 22.0983H101.578V34.0983H105.226ZM139.339 28.0983C139.339 30.0903 138.667 31.9143 137.539 33.4023L139.171 35.0103L137.467 36.7143L135.859 35.0823C134.371 36.2103 132.547 36.8823 130.555 36.8823C125.731 36.8823 121.771 32.9223 121.771 28.0983C121.771 23.2743 125.731 19.3143 130.555 19.3143C135.379 19.3143 139.339 23.2743 139.339 28.0983ZM130.555 34.4823C131.875 34.4823 133.123 34.0743 134.131 33.3783L132.643 31.8903L134.347 30.1863L135.835 31.6743C136.531 30.6663 136.939 29.4183 136.939 28.0983C136.939 24.5943 134.059 21.7143 130.555 21.7143C127.051 21.7143 124.171 24.5943 124.171 28.0983C124.171 31.6023 127.051 34.4823 130.555 34.4823ZM153.268 19.6983H155.668V30.1623C155.668 33.8583 152.644 36.8823 148.948 36.8823C145.252 36.8823 142.228 33.8583 142.228 30.1623V19.6983H144.628V30.1623C144.628 32.5383 146.572 34.4823 148.948 34.4823C151.324 34.4823 153.268 32.5383 153.268 30.1623V19.6983ZM170.64 19.6983V22.0983H162V27.0183H168.24V29.2023H162V34.0983H170.64V36.4983H159.6V19.6983H170.64ZM178.75 36.8823C177.55 36.8823 176.374 36.6423 175.318 36.1383C174.286 35.6823 173.326 34.9863 172.462 34.0743L174.214 32.4183C175.51 33.7863 177.022 34.4823 178.75 34.4823C180.814 34.4823 182.206 33.3543 182.206 31.6503V31.6023C182.206 30.8583 182.038 30.4023 181.582 30.0183C181.03 29.5143 179.998 29.0823 178.414 28.7223C176.518 28.3143 175.294 27.8103 174.454 27.1143C173.518 26.3223 173.086 25.3143 173.086 23.9703V23.9463C173.086 23.3223 173.206 22.7223 173.47 22.1463C173.734 21.5943 174.094 21.0903 174.55 20.6583C175.51 19.7943 176.83 19.3143 178.27 19.3143C179.23 19.3143 180.19 19.5063 181.078 19.8663C181.918 20.2023 182.71 20.6583 183.43 21.2823L181.918 23.1303C180.766 22.1943 179.542 21.7143 178.27 21.7143C176.446 21.7143 175.486 22.8663 175.486 23.9463V23.9703C175.486 24.7623 175.486 25.6263 178.942 26.3943C180.958 26.8503 182.302 27.4263 183.19 28.2183C184.15 29.0583 184.606 30.1863 184.606 31.6023V31.6503C184.606 33.1143 184.03 34.4583 182.974 35.3943C181.894 36.3783 180.43 36.8823 178.75 36.8823ZM199.893 19.6983V22.0983H194.133V36.4983H191.733V22.0983H185.973V19.6983H199.893ZM204.703 19.6983V36.4983H202.303V19.6983H204.703ZM216.618 19.3143C221.442 19.3143 225.402 23.2743 225.402 28.0983C225.402 32.9223 221.442 36.8823 216.618 36.8823C211.794 36.8823 207.834 32.9223 207.834 28.0983C207.834 23.2743 211.794 19.3143 216.618 19.3143ZM216.618 34.4823C220.122 34.4823 223.002 31.6023 223.002 28.0983C223.002 24.5943 220.122 21.7143 216.618 21.7143C213.114 21.7143 210.234 24.5943 210.234 28.0983C210.234 31.6023 213.114 34.4823 216.618 34.4823ZM241.969 19.6983V36.4983H239.569L230.929 23.9223V36.4983H228.529V19.6983H230.929L239.569 32.2743V19.6983H241.969Z" fill="white"/>
</svg>
