<svg width="164" height="164" viewBox="0 0 164 164" fill="none" xmlns="http://www.w3.org/2000/svg">
<g filter="url(#filter0_d_215_141)">
<circle cx="72" cy="67" r="62" fill="white" fill-opacity="0.6" shape-rendering="crispEdges"/>
<circle cx="72" cy="67" r="60.5" stroke="white" stroke-width="3" shape-rendering="crispEdges"/>
</g>
<path fill-rule="evenodd" clip-rule="evenodd" d="M58.5897 56.7172C58.8341 53.5192 59.9189 50.1664 59.139 47.197C57.3216 42.9574 48.7397 40.9574 44.6146 41.7088C42.0348 46.0477 43.1 51.3991 43.5744 56.3442L58.5897 56.7172Z" fill="#592D0D"/>
<path fill-rule="evenodd" clip-rule="evenodd" d="M51.0369 56.5296V42.1074C54.5563 42.9331 58.0549 44.665 59.1383 47.197C59.9175 50.1657 58.8334 53.5192 58.589 56.7171L51.0369 56.5296Z" fill="#4A250A"/>
<path fill-rule="evenodd" clip-rule="evenodd" d="M50.9056 86.72C53.1813 86.7533 55.4244 86.6547 57.6376 86.4228V66.113L56.8807 65.7824C55.2168 65.0546 53.157 64.2178 50.9056 63.9109V86.72Z" fill="#B2D8DE"/>
<path fill-rule="evenodd" clip-rule="evenodd" d="M50.9056 86.72C48.6278 86.7533 46.3861 86.6547 44.1715 86.4228V66.113L44.9285 65.7824C46.5937 65.0546 48.6521 64.2178 50.9056 63.9109V86.72Z" fill="#B2D8DE"/>
<path fill-rule="evenodd" clip-rule="evenodd" d="M46.0987 59.915H55.7119V65.7144C52.5077 68.2609 49.3029 68.3623 46.0987 65.7144V59.915Z" fill="#E0AC7E"/>
<path fill-rule="evenodd" clip-rule="evenodd" d="M46.9473 48.0074C45.5848 47.7414 44.2799 49.1345 44.0361 50.5005C43.8118 51.7519 43.6542 53.0373 43.5979 54.3255C43.5598 54.3192 43.7611 54.3158 43.4854 54.3158C43.2098 54.3158 42.3146 54.5185 42.3584 55.7081C42.3903 56.6005 43.166 59.1929 44.1855 58.7679C45.6639 62.7248 47.6521 64.9588 50.9056 65.7498C50.9598 65.6443 50.9848 65.7255 51.0369 65.6929V48.4234C49.7244 48.4275 48.4112 48.2935 46.9473 48.0074Z" fill="#F2C196"/>
<path fill-rule="evenodd" clip-rule="evenodd" d="M54.9953 48.0074C56.3578 47.7414 57.6612 49.1345 57.905 50.5005C58.1307 51.7519 58.2869 53.0373 58.3446 54.3255C58.3814 54.3192 58.1814 54.3158 58.4571 54.3158C58.7328 54.3158 59.6265 54.5185 59.5835 55.7081C59.5515 56.6005 58.7758 59.1929 57.7564 58.7679C56.2598 62.779 54.239 64.9873 50.907 65.7498V48.4227C52.2195 48.4268 53.5314 48.2928 54.9959 48.0067L54.9953 48.0074Z" fill="#EBB688"/>
<path fill-rule="evenodd" clip-rule="evenodd" d="M50.9056 67.6624H52.5487L51.8535 70.2707H50.907H50.9035H49.9577L49.2618 67.6624H50.9056Z" fill="#FF3705"/>
<path fill-rule="evenodd" clip-rule="evenodd" d="M51.8536 70.1921L52.5251 80.0623L50.9057 83.0227L49.2855 80.0623L49.9577 70.1921H51.8536Z" fill="#FF5527"/>
<path fill-rule="evenodd" clip-rule="evenodd" d="M50.9057 67.6623L48.0834 70.4047L44.9279 65.7824L46.0973 65.1456C47.2786 66.3922 48.8973 67.1845 50.905 67.663L50.9057 67.6623Z" fill="#F0FAFC"/>
<path fill-rule="evenodd" clip-rule="evenodd" d="M50.9056 82.7561L43.982 66.1964C37.725 68.8957 33.7069 70.9762 33 78.9006C35.8431 83.9721 42.6299 88.1228 50.9056 88.1166V82.7561Z" fill="#096385"/>
<path fill-rule="evenodd" clip-rule="evenodd" d="M38.657 84.6735C38.9077 84.8485 39.1938 84.9908 39.457 85.1561L39.4382 81.8776L38.657 84.6735Z" fill="#08426A"/>
<path fill-rule="evenodd" clip-rule="evenodd" d="M50.9056 82.7562V86.9409L44.3875 75.27L46.3271 72.92L43.375 71.9353L42.0431 67.045L45.2674 65.6353L50.9056 82.7562Z" fill="#0174A3"/>
<path fill-rule="evenodd" clip-rule="evenodd" d="M50.9056 67.6623L53.7258 70.4047L56.8814 65.7824L55.7119 65.1456C54.5313 66.3922 52.9133 67.1845 50.9063 67.663L50.9056 67.6623Z" fill="#F0FAFC"/>
<path fill-rule="evenodd" clip-rule="evenodd" d="M50.9056 82.7561L57.8272 66.1964C64.0849 68.8957 68.1029 70.9762 68.8092 78.9006C65.9668 83.9721 59.18 88.1228 50.9056 88.1166V82.7561Z" fill="#0B5975"/>
<path fill-rule="evenodd" clip-rule="evenodd" d="M63.1529 84.6735C62.9022 84.8485 62.6161 84.9908 62.3536 85.1561L62.3723 81.8776L63.1529 84.6735Z" fill="#08426A"/>
<path fill-rule="evenodd" clip-rule="evenodd" d="M50.9056 82.7561V86.9408L57.4223 75.27L55.4841 72.9199L58.4348 71.9352L59.7668 67.0449L56.6591 65.6609L50.9056 82.7561Z" fill="#0A6D94"/>
<path fill-rule="evenodd" clip-rule="evenodd" d="M100.463 56.7172C100.708 53.5192 101.794 50.1664 101.014 47.197C99.1968 42.9574 90.6134 40.9574 86.4877 41.7088C83.9092 46.0477 84.9752 51.3991 85.4495 56.3442L100.464 56.7172H100.463Z" fill="#592D0D"/>
<path fill-rule="evenodd" clip-rule="evenodd" d="M92.9113 56.5296V42.1074C96.4308 42.9331 99.928 44.665 101.014 47.197C101.792 50.1657 100.709 53.5192 100.463 56.7171L92.9113 56.5296Z" fill="#4A250A"/>
<path fill-rule="evenodd" clip-rule="evenodd" d="M92.7801 86.72C95.0579 86.7533 97.2989 86.6547 99.5135 86.4228V66.113L98.7565 65.7824C97.0912 65.0546 95.0329 64.2178 92.7801 63.9109V86.72Z" fill="#B2D8DE"/>
<path fill-rule="evenodd" clip-rule="evenodd" d="M92.7801 86.72C90.5023 86.7533 88.2613 86.6547 86.0468 86.4228V66.113L86.8023 65.7824C88.4676 65.0546 90.528 64.2178 92.7794 63.9109L92.7801 86.72Z" fill="#B2D8DE"/>
<path fill-rule="evenodd" clip-rule="evenodd" d="M87.9724 59.915H97.5877V65.7144C94.3829 68.2609 91.1773 68.3623 87.9724 65.7144V59.915Z" fill="#E0AC7E"/>
<path fill-rule="evenodd" clip-rule="evenodd" d="M88.821 48.0074C87.4585 47.7414 86.1543 49.1345 85.9113 50.5005C85.687 51.7519 85.5293 53.0373 85.471 54.3255C85.4342 54.3192 85.6349 54.3158 85.3599 54.3158C85.0849 54.3158 84.1911 54.5185 84.2328 55.7081C84.2668 56.6005 85.0425 59.1929 86.062 58.7679C87.5397 62.7248 89.5266 64.9588 92.78 65.7498C92.8342 65.6443 92.8606 65.7255 92.9113 65.6929V48.4234C91.5974 48.4275 90.2849 48.2935 88.821 48.0074Z" fill="#F2C196"/>
<path fill-rule="evenodd" clip-rule="evenodd" d="M96.8697 48.0074C98.2322 47.7414 99.535 49.1345 99.7794 50.5005C100.004 51.7519 100.163 53.0373 100.219 54.3255C100.256 54.3192 100.055 54.3158 100.33 54.3158C100.605 54.3158 101.501 54.5185 101.459 55.7081C101.426 56.6005 100.65 59.1929 99.6308 58.7679C98.1329 62.779 96.1134 64.9873 92.7801 65.7498V48.4227C94.094 48.4268 95.4051 48.2928 96.8704 48.0067L96.8697 48.0074Z" fill="#EBB688"/>
<path fill-rule="evenodd" clip-rule="evenodd" d="M92.7801 67.6624H94.4225L93.7273 70.2707H92.7808H92.7787H91.8315L91.1349 67.6624H92.7801Z" fill="#FF3705"/>
<path fill-rule="evenodd" clip-rule="evenodd" d="M93.7273 70.1921L94.3995 80.0623L92.7801 83.0227L91.1606 80.0623L91.8315 70.1921H93.7273Z" fill="#FF5527"/>
<path fill-rule="evenodd" clip-rule="evenodd" d="M92.7801 67.6623L89.9607 70.4047L86.803 65.7824L87.9725 65.1456C89.1537 66.3922 90.7732 67.1838 92.7801 67.6623Z" fill="#F0FAFC"/>
<path fill-rule="evenodd" clip-rule="evenodd" d="M92.7801 82.7561L85.8564 66.1964C79.5995 68.8957 75.5828 70.9762 74.8765 78.9006C77.7189 83.9721 84.5057 88.1228 92.7801 88.1166V82.7561Z" fill="#096385"/>
<path fill-rule="evenodd" clip-rule="evenodd" d="M80.5321 84.6735C80.7828 84.8485 81.0689 84.9908 81.3314 85.1561L81.3127 81.8776L80.5321 84.6735Z" fill="#08426A"/>
<path fill-rule="evenodd" clip-rule="evenodd" d="M92.7801 82.7562V86.9409L86.2634 75.27L88.203 72.92L85.2495 71.9353L83.9169 67.045L87.1412 65.6353L92.7801 82.7562Z" fill="#0174A3"/>
<path fill-rule="evenodd" clip-rule="evenodd" d="M92.7801 67.6623L95.6002 70.4047L98.7565 65.7824L97.5877 65.1456C96.4051 66.3922 94.787 67.1838 92.7801 67.6623Z" fill="#F0FAFC"/>
<path fill-rule="evenodd" clip-rule="evenodd" d="M92.7801 82.7561L99.7037 66.1964C105.959 68.8957 109.979 70.9762 110.684 78.9006C107.841 83.9721 101.054 88.1228 92.7801 88.1166V82.7561Z" fill="#0B5975"/>
<path fill-rule="evenodd" clip-rule="evenodd" d="M105.027 84.6735C104.776 84.8485 104.492 84.9908 104.229 85.1561L104.248 81.8776L105.027 84.6735Z" fill="#08426A"/>
<path fill-rule="evenodd" clip-rule="evenodd" d="M92.7801 82.7561V86.9408L99.2961 75.27L97.3579 72.9199L100.309 71.9352L101.643 67.0449L98.5336 65.6609L92.7801 82.7561Z" fill="#0A6D94"/>
<path fill-rule="evenodd" clip-rule="evenodd" d="M81.8592 56.5394C82.1759 52.4193 83.5731 48.0977 82.5697 44.2734C80.2259 38.8088 69.1668 36.2324 63.8501 37.1998C60.5279 42.7907 61.9001 49.688 62.5119 56.0595L81.8592 56.5394Z" fill="#592D0D"/>
<path fill-rule="evenodd" clip-rule="evenodd" d="M72.128 56.2977V37.7136C76.6648 38.7782 81.1704 41.0102 82.5697 44.2734C83.5732 48.0984 82.176 52.4192 81.8593 56.5394L72.128 56.2977Z" fill="#4A250A"/>
<path fill-rule="evenodd" clip-rule="evenodd" d="M71.9586 95.2C74.8947 95.2423 77.7822 95.1153 80.635 94.8166V68.6457L79.6614 68.2193C77.5155 67.2811 74.8613 66.2026 71.9586 65.8075V95.2Z" fill="#B2D8DE"/>
<path fill-rule="evenodd" clip-rule="evenodd" d="M71.9585 95.2C69.0231 95.2423 66.1356 95.1153 63.2835 94.8166V68.6457L64.2571 68.2193C66.4016 67.2811 69.0571 66.2026 71.9585 65.8075V95.2Z" fill="#B2D8DE"/>
<path fill-rule="evenodd" clip-rule="evenodd" d="M65.7648 60.6595H78.1523V68.1318C74.0231 71.4138 69.894 71.5443 65.7648 68.1318V60.6595Z" fill="#E0AC7E"/>
<path fill-rule="evenodd" clip-rule="evenodd" d="M66.8572 45.3151C65.1023 44.9727 63.4224 46.7679 63.1072 48.5283C62.8183 50.1422 62.6148 51.7977 62.5412 53.4568C62.4947 53.4491 62.753 53.445 62.3995 53.445C62.044 53.445 60.8912 53.7061 60.9474 55.2394C60.9877 56.3894 61.987 59.7304 63.3023 59.1832C65.2044 64.2818 67.7683 67.1596 71.9586 68.1798C72.0294 68.045 72.0621 68.1478 72.128 68.1048V45.8519C70.4364 45.8581 68.7454 45.6845 66.8572 45.3151Z" fill="#F2C196"/>
<path fill-rule="evenodd" clip-rule="evenodd" d="M77.2295 45.3151C78.9843 44.9727 80.6635 46.7679 80.9788 48.5283C81.269 50.1422 81.4711 51.7977 81.5454 53.4568C81.5934 53.4491 81.335 53.445 81.6885 53.445C82.042 53.445 83.1954 53.7061 83.142 55.2394C83.101 56.3894 82.1003 59.7304 80.7857 59.1832C78.8558 64.3513 76.2531 67.1971 71.9593 68.1798V45.8526C73.651 45.8588 75.3419 45.6852 77.2301 45.3158L77.2295 45.3151Z" fill="#EBB688"/>
<path fill-rule="evenodd" clip-rule="evenodd" d="M71.9585 70.6422H74.0766L73.18 74.004H71.9592H71.9571H70.7377L69.8411 70.6422H71.9585Z" fill="#FF3705"/>
<path fill-rule="evenodd" clip-rule="evenodd" d="M73.1801 73.902L74.0467 86.6215L71.9585 90.4354L69.871 86.6215L70.7377 73.902H73.1801Z" fill="#FF5527"/>
<path fill-rule="evenodd" clip-rule="evenodd" d="M71.9585 70.6423L68.3245 74.1763L64.2564 68.2193L65.7647 67.3985C67.2856 69.0041 69.3724 70.0249 71.9585 70.6423Z" fill="#F0FAFC"/>
<path fill-rule="evenodd" clip-rule="evenodd" d="M71.9586 90.0909L63.0384 68.754C54.9759 72.2318 49.7987 74.9131 48.8876 85.1235C52.5508 91.659 61.2974 97.0069 71.9586 97V90.0909Z" fill="#096385"/>
<path fill-rule="evenodd" clip-rule="evenodd" d="M56.1772 92.5625C56.5002 92.7889 56.8675 92.9729 57.2064 93.1854L57.1821 88.9597L56.1772 92.5625Z" fill="#08426A"/>
<path fill-rule="evenodd" clip-rule="evenodd" d="M71.9586 90.0909V95.484L63.5613 80.4464L66.0592 77.4165L62.255 76.1492L60.5391 69.8464L64.6926 68.0304L71.9586 90.0909Z" fill="#0174A3"/>
<path fill-rule="evenodd" clip-rule="evenodd" d="M71.9586 70.6423L75.5933 74.1763L79.6614 68.2193L78.153 67.3985C76.6322 69.0041 74.5461 70.0249 71.9586 70.6423Z" fill="#F0FAFC"/>
<path fill-rule="evenodd" clip-rule="evenodd" d="M71.9586 90.0909L80.8794 68.754C88.942 72.2318 94.1191 74.9131 95.0302 85.1235C91.367 91.659 82.6204 97.0069 71.9586 97V90.0909Z" fill="#0B5975"/>
<path fill-rule="evenodd" clip-rule="evenodd" d="M87.7405 92.5625C87.4176 92.7889 87.0503 92.9729 86.7114 93.1854L86.735 88.9597L87.7405 92.5625Z" fill="#08426A"/>
<path fill-rule="evenodd" clip-rule="evenodd" d="M71.9586 90.0909V95.484L80.3565 80.4464L77.8586 77.4165L81.6628 76.1492L83.378 69.8464L79.3739 68.0637L71.9586 90.0909Z" fill="#0A6D94"/>
<defs>
<filter id="filter0_d_215_141" x="0" y="0" width="164" height="164" filterUnits="userSpaceOnUse" color-interpolation-filters="sRGB">
<feFlood flood-opacity="0" result="BackgroundImageFix"/>
<feColorMatrix in="SourceAlpha" type="matrix" values="0 0 0 0 0 0 0 0 0 0 0 0 0 0 0 0 0 0 127 0" result="hardAlpha"/>
<feOffset dx="10" dy="15"/>
<feGaussianBlur stdDeviation="10"/>
<feComposite in2="hardAlpha" operator="out"/>
<feColorMatrix type="matrix" values="0 0 0 0 0 0 0 0 0 0 0 0 0 0 0 0 0 0 0.25 0"/>
<feBlend mode="normal" in2="BackgroundImageFix" result="effect1_dropShadow_215_141"/>
<feBlend mode="normal" in="SourceGraphic" in2="effect1_dropShadow_215_141" result="shape"/>
</filter>
</defs>
</svg>
