<svg width="72" height="72" viewBox="0 0 72 72" fill="none" xmlns="http://www.w3.org/2000/svg">
<path d="M68.2863 11.3684H60.6316V3.71368C60.6316 1.66737 58.9642 0 56.9179 0H56.8042C54.72 0 53.0526 1.66737 53.0526 3.71368V11.3684H45.4358C43.3895 11.3684 41.7221 13.0358 41.6842 15.0821V15.1958C41.6842 17.28 43.3516 18.9474 45.4358 18.9474H53.0526V26.5642C53.0526 28.6105 54.72 30.3158 56.8042 30.2779H56.9179C58.9642 30.2779 60.6316 28.6105 60.6316 26.5642V18.9474H68.2863C70.3326 18.9474 72 17.28 72 15.2337V15.0821C72 13.0358 70.3326 11.3684 68.2863 11.3684ZM49.2632 26.5642V22.7368H45.4358C43.4274 22.7368 41.5326 21.9411 40.0926 20.5389C38.6905 19.0989 37.8947 17.2042 37.8947 15.0821C37.8947 13.7179 38.2737 12.4674 38.9179 11.3684H7.57895C3.41053 11.3684 0 14.7789 0 18.9474V64.4211C0 68.5895 3.41053 72 7.57895 72H53.0526C57.2211 72 60.6316 68.5895 60.6316 64.4211V33.0442C59.4947 33.6884 58.2063 34.1053 56.7663 34.1053C52.6358 34.0674 49.2632 30.6947 49.2632 26.5642ZM49.1116 64.4211H11.3684C9.81474 64.4211 8.90526 62.64 9.85263 61.3895L17.3558 51.4232C18.1516 50.3621 19.7053 50.4379 20.4632 51.499L26.5263 60.6316L36.4168 47.4442C37.1747 46.459 38.6526 46.4211 39.4105 47.4063L50.5895 61.3516C51.5747 62.6021 50.7032 64.4211 49.1116 64.4211Z" fill="#515151" fill-opacity="0.5"/>
</svg>
