<svg width="56" height="56" viewBox="0 0 56 56" fill="none" xmlns="http://www.w3.org/2000/svg">
<rect x="1" y="1" width="54" height="54" rx="15" stroke="#E0E0E0" stroke-width="2"/>
<path fill-rule="evenodd" clip-rule="evenodd" d="M38.6606 19.4606C39.2463 18.8748 39.2463 17.925 38.6606 17.3392C38.0748 16.7535 37.125 16.7535 36.5392 17.3392L27.9999 25.8786L19.4606 17.3392C18.8748 16.7535 17.925 16.7535 17.3392 17.3392C16.7535 17.925 16.7535 18.8748 17.3392 19.4606L25.8786 27.9999L17.3392 36.5392C16.7535 37.125 16.7535 38.0748 17.3392 38.6606C17.925 39.2463 18.8748 39.2463 19.4606 38.6606L27.9999 30.1212L36.5392 38.6606C37.125 39.2463 38.0748 39.2463 38.6606 38.6606C39.2463 38.0748 39.2463 37.125 38.6606 36.5392L30.1212 27.9999L38.6606 19.4606Z" fill="white"/>
</svg>
