<svg width="296" height="296" viewBox="0 0 296 296" fill="none" xmlns="http://www.w3.org/2000/svg">
<g filter="url(#filter0_d_858_523)">
<rect x="10" y="5" width="256" height="256" rx="24" fill="white"/>
</g>
<path d="M173.286 88.3684H165.632V80.7137C165.632 78.6674 163.964 77 161.918 77H161.804C159.72 77 158.053 78.6674 158.053 80.7137V88.3684H150.436C148.389 88.3684 146.722 90.0358 146.684 92.0821V92.1958C146.684 94.28 148.352 95.9474 150.436 95.9474H158.053V103.564C158.053 105.611 159.72 107.316 161.804 107.278H161.918C163.964 107.278 165.632 105.611 165.632 103.564V95.9474H173.286C175.333 95.9474 177 94.28 177 92.2337V92.0821C177 90.0358 175.333 88.3684 173.286 88.3684ZM154.263 103.564V99.7368H150.436C148.427 99.7368 146.533 98.9411 145.093 97.5389C143.691 96.0989 142.895 94.2042 142.895 92.0821C142.895 90.7179 143.274 89.4674 143.918 88.3684H112.579C108.411 88.3684 105 91.7789 105 95.9474V141.421C105 145.589 108.411 149 112.579 149H158.053C162.221 149 165.632 145.589 165.632 141.421V110.044C164.495 110.688 163.206 111.105 161.766 111.105C157.636 111.067 154.263 107.695 154.263 103.564ZM154.112 141.421H116.368C114.815 141.421 113.905 139.64 114.853 138.389L122.356 128.423C123.152 127.362 124.705 127.438 125.463 128.499L131.526 137.632L141.417 124.444C142.175 123.459 143.653 123.421 144.411 124.406L155.589 138.352C156.575 139.602 155.703 141.421 154.112 141.421Z" fill="#515151" fill-opacity="0.5"/>
<defs>
<filter id="filter0_d_858_523" x="0" y="0" width="296" height="296" filterUnits="userSpaceOnUse" color-interpolation-filters="sRGB">
<feFlood flood-opacity="0" result="BackgroundImageFix"/>
<feColorMatrix in="SourceAlpha" type="matrix" values="0 0 0 0 0 0 0 0 0 0 0 0 0 0 0 0 0 0 127 0" result="hardAlpha"/>
<feOffset dx="10" dy="15"/>
<feGaussianBlur stdDeviation="10"/>
<feComposite in2="hardAlpha" operator="out"/>
<feColorMatrix type="matrix" values="0 0 0 0 0.317647 0 0 0 0 0.317647 0 0 0 0 0.317647 0 0 0 0.5 0"/>
<feBlend mode="normal" in2="BackgroundImageFix" result="effect1_dropShadow_858_523"/>
<feBlend mode="normal" in="SourceGraphic" in2="effect1_dropShadow_858_523" result="shape"/>
</filter>
</defs>
</svg>
