<svg width="263" height="56" viewBox="0 0 263 56" fill="none" xmlns="http://www.w3.org/2000/svg">
<rect width="262.997" height="55.9967" rx="20" fill="#690D93"/>
<path fill-rule="evenodd" clip-rule="evenodd" d="M40.9984 17C40.9984 16.4477 40.5507 16 39.9984 16C39.4461 16 38.9984 16.4477 38.9984 17V26.9984H29C28.4477 26.9984 28 27.4462 28 27.9984C28 28.5507 28.4477 28.9984 29 28.9984H38.9984V38.9967C38.9984 39.549 39.4461 39.9967 39.9984 39.9967C40.5507 39.9967 40.9984 39.549 40.9984 38.9967V28.9984H50.9967C51.549 28.9984 51.9967 28.5507 51.9967 27.9984C51.9967 27.4462 51.549 26.9984 50.9967 26.9984H40.9984V17Z" fill="white"/>
<path d="M76.7646 36.4983L75.0126 31.3863H68.4846L66.7326 36.4983H64.1886L69.9726 19.6983H73.5246L79.3086 36.4983H76.7646ZM69.1806 29.3463H74.2926L71.7486 21.9303L69.1806 29.3463ZM87.5762 19.6983C92.1842 19.6983 95.9762 23.4903 95.9762 28.0983C95.9762 32.7303 92.1842 36.4983 87.5762 36.4983H81.5762V19.6983H87.5762ZM87.6242 34.0983C90.8882 34.0983 93.5762 31.4103 93.5762 28.1463V28.0503C93.5762 24.7863 90.8882 22.0983 87.6242 22.0983H83.9762V34.0983H87.6242ZM105.178 19.6983C109.786 19.6983 113.578 23.4903 113.578 28.0983C113.578 32.7303 109.786 36.4983 105.178 36.4983H99.1778V19.6983H105.178ZM105.226 34.0983C108.49 34.0983 111.178 31.4103 111.178 28.1463V28.0503C111.178 24.7863 108.49 22.0983 105.226 22.0983H101.578V34.0983H105.226ZM129.499 19.6983C132.403 19.6983 134.779 22.0743 134.779 24.9783C134.779 27.8823 132.403 30.2583 129.499 30.2583H125.179V36.4983H122.779V19.6983H129.499ZM129.499 27.8583C131.083 27.8583 132.379 26.5623 132.379 24.9783C132.379 23.3943 131.083 22.0983 129.499 22.0983H125.179V27.8583H129.499ZM150.601 36.4983H147.865L144.553 30.2583H139.945V36.4983H137.545V19.6983H144.265C147.169 19.6983 149.545 22.0743 149.545 24.9783C149.545 26.9223 148.489 28.6503 146.905 29.5623L150.601 36.4983ZM139.945 27.8583H144.265C145.849 27.8583 147.145 26.5623 147.145 24.9783C147.145 23.3943 145.849 22.0983 144.265 22.0983H139.945V27.8583ZM160.696 19.3143C165.52 19.3143 169.48 23.2743 169.48 28.0983C169.48 32.9223 165.52 36.8823 160.696 36.8823C155.872 36.8823 151.912 32.9223 151.912 28.0983C151.912 23.2743 155.872 19.3143 160.696 19.3143ZM160.696 34.4823C164.2 34.4823 167.08 31.6023 167.08 28.0983C167.08 24.5943 164.2 21.7143 160.696 21.7143C157.192 21.7143 154.312 24.5943 154.312 28.0983C154.312 31.6023 157.192 34.4823 160.696 34.4823ZM181.799 27.7623C183.695 28.2663 185.087 30.0183 185.087 32.0583C185.087 34.5063 183.095 36.4983 180.647 36.4983H172.607V19.6983H180.167C182.495 19.6983 184.367 21.5943 184.367 23.8983C184.367 25.6263 183.311 27.1383 181.799 27.7623ZM180.119 34.0983C181.535 34.0983 182.687 32.9463 182.687 31.5063C182.687 30.0903 181.535 28.9383 180.119 28.9383H175.007V34.0983H180.119ZM175.007 22.0983V26.7783H179.639C180.935 26.7783 181.967 25.7223 181.967 24.4263C181.967 23.1543 180.935 22.0983 179.639 22.0983H175.007ZM199.28 34.0983V36.4983H188.24V19.6983H190.64V34.0983H199.28ZM212.71 19.6983V22.0983H204.07V27.0183H210.31V29.2023H204.07V34.0983H212.71V36.4983H201.67V19.6983H212.71ZM228.116 19.6983H230.924L232.964 36.4983H230.564L229.028 24.0423L225.38 33.5703H222.596L219.02 24.2583L217.508 36.4983H215.108L217.172 19.6983H219.836L223.988 30.4743L228.116 19.6983Z" fill="white"/>
</svg>
