<svg width="424" height="424" viewBox="0 0 424 424" fill="none" xmlns="http://www.w3.org/2000/svg">
<g filter="url(#filter0_d_601_633)">
<rect x="10" y="5" width="384" height="384" rx="24" fill="white"/>
</g>
<path d="M256.429 130.053H244.947V118.571C244.947 115.501 242.446 113 239.377 113H239.206C236.08 113 233.579 115.501 233.579 118.571V130.053H222.154C219.084 130.053 216.583 132.554 216.526 135.623V135.794C216.526 138.92 219.027 141.421 222.154 141.421H233.579V152.846C233.579 155.916 236.08 158.474 239.206 158.417H239.377C242.446 158.417 244.947 155.916 244.947 152.846V141.421H256.429C259.499 141.421 262 138.92 262 135.851V135.623C262 132.554 259.499 130.053 256.429 130.053ZM227.895 152.846V147.105H222.154C219.141 147.105 216.299 145.912 214.139 143.808C212.036 141.648 210.842 138.806 210.842 135.623C210.842 133.577 211.411 131.701 212.377 130.053H165.368C159.116 130.053 154 135.168 154 141.421V209.632C154 215.884 159.116 221 165.368 221H233.579C239.832 221 244.947 215.884 244.947 209.632V162.566C243.242 163.533 241.309 164.158 239.149 164.158C232.954 164.101 227.895 159.042 227.895 152.846ZM227.667 209.632H171.053C168.722 209.632 167.358 206.96 168.779 205.084L180.034 190.135C181.227 188.543 183.558 188.657 184.695 190.248L193.789 203.947L208.625 184.166C209.762 182.688 211.979 182.632 213.116 184.109L229.884 205.027C231.362 206.903 230.055 209.632 227.667 209.632Z" fill="#515151" fill-opacity="0.5"/>
<path d="M138.032 274.288C136.784 274.288 135.608 274.048 134.528 273.568C133.472 273.112 132.512 272.416 131.624 271.528L132.824 270.352C134.288 271.84 136.04 272.608 138.032 272.608C140.504 272.608 142.184 271.264 142.184 269.272V269.224C142.184 268.36 141.944 267.76 141.368 267.28C140.696 266.728 139.52 266.248 137.768 265.864C135.824 265.456 134.552 264.952 133.712 264.28C132.824 263.56 132.392 262.6 132.392 261.352V261.304C132.392 260.704 132.512 260.128 132.776 259.6C133.016 259.072 133.376 258.592 133.832 258.184C134.792 257.368 136.088 256.912 137.504 256.912C138.464 256.912 139.424 257.104 140.36 257.44C141.2 257.776 141.992 258.232 142.76 258.856L141.704 260.152C140.408 259.12 138.992 258.592 137.504 258.592C136.496 258.592 135.584 258.904 134.96 259.456C134.384 259.96 134.072 260.608 134.072 261.304V261.352C134.072 262.096 134.264 262.552 134.768 262.96C135.392 263.464 136.472 263.872 138.152 264.232C140.192 264.688 141.56 265.24 142.472 266.008C143.408 266.8 143.864 267.856 143.864 269.224V269.272C143.864 270.688 143.288 271.96 142.232 272.872C141.176 273.808 139.712 274.288 138.032 274.288ZM151.568 261.712C154.64 261.712 157.136 264.544 157.136 268V268.24H147.56C147.68 270.76 149.768 272.752 152.288 272.752C153.512 272.752 154.616 272.296 155.456 271.528L156.56 272.632C155.384 273.688 153.896 274.288 152.288 274.288C150.632 274.288 149.048 273.64 147.848 272.44C146.672 271.24 146 269.68 146 268C146 264.544 148.52 261.712 151.568 261.712ZM151.568 263.248C149.744 263.248 148.184 264.712 147.704 266.704H155.456C154.976 264.712 153.416 263.248 151.568 263.248ZM161.195 257.2V274H159.659V257.2H161.195ZM169.568 261.712C172.64 261.712 175.136 264.544 175.136 268V268.24H165.56C165.68 270.76 167.768 272.752 170.288 272.752C171.512 272.752 172.616 272.296 173.456 271.528L174.56 272.632C173.384 273.688 171.896 274.288 170.288 274.288C168.632 274.288 167.048 273.64 165.848 272.44C164.672 271.24 164 269.68 164 268C164 264.544 166.52 261.712 169.568 261.712ZM169.568 263.248C167.744 263.248 166.184 264.712 165.704 266.704H173.456C172.976 264.712 171.416 263.248 169.568 263.248ZM186.803 271.432L187.883 272.44C186.659 273.592 185.003 274.288 183.155 274.288C179.699 274.288 176.867 271.456 176.867 268C176.867 264.544 179.699 261.712 183.155 261.712C184.883 261.712 186.443 262.432 187.595 263.56L186.515 264.64C185.651 263.776 184.451 263.248 183.155 263.248C180.539 263.248 178.403 265.384 178.403 268C178.403 270.616 180.539 272.752 183.155 272.752C184.571 272.752 185.867 272.248 186.803 271.432ZM192.401 269.728C192.401 271.384 193.745 272.752 195.425 272.752V274H193.817C192.089 273.352 190.865 271.696 190.865 269.728V263.536H189.329V262H190.865V258.76H192.401V262H195.089V263.536H192.401V269.728ZM205.928 257.2V274H204.248V257.2H205.928ZM223.732 261.712C226.42 261.712 228.604 263.896 228.604 266.584V274H227.068V266.752C227.068 264.832 225.484 263.248 223.564 263.248C221.644 263.248 220.06 264.832 220.06 266.752V274H218.524V266.752C218.524 264.832 216.94 263.248 215.02 263.248C213.1 263.248 211.516 264.832 211.516 266.752V274H209.98V262H211.204L211.492 263.416C212.38 262.384 213.724 261.712 215.188 261.712C217.012 261.712 218.62 262.744 219.46 264.256C220.3 262.744 221.884 261.712 223.732 261.712ZM242.331 262H243.579V274H242.331L242.043 272.464V271.72C240.915 273.28 239.115 274.288 237.123 274.288C233.739 274.288 231.003 271.456 231.003 268C231.003 264.544 233.739 261.712 237.123 261.712C239.115 261.712 240.915 262.72 242.043 264.28V263.536L242.331 262ZM237.291 272.752C239.883 272.752 242.043 270.616 242.043 268C242.043 265.384 239.883 263.248 237.291 263.248C234.675 263.248 232.539 265.384 232.539 268C232.539 270.616 234.675 272.752 237.291 272.752ZM257.666 262H258.89V272.512C258.89 275.968 256.058 278.8 252.602 278.8C250.874 278.8 249.29 278.104 248.162 276.952L249.242 275.872C250.106 276.736 251.282 277.264 252.602 277.264C255.218 277.264 257.354 275.128 257.354 272.512V271.72C256.226 273.28 254.45 274.288 252.434 274.288C249.074 274.288 246.314 271.456 246.314 268C246.314 264.544 249.074 261.712 252.434 261.712C254.45 261.712 256.226 262.72 257.354 264.28V263.536L257.666 262ZM252.602 272.752C255.218 272.752 257.354 270.616 257.354 268C257.354 265.384 255.218 263.248 252.602 263.248C249.986 263.248 247.85 265.384 247.85 268C247.85 270.616 249.986 272.752 252.602 272.752ZM267.256 261.712C270.328 261.712 272.824 264.544 272.824 268V268.24H263.248C263.368 270.76 265.456 272.752 267.976 272.752C269.2 272.752 270.304 272.296 271.144 271.528L272.248 272.632C271.072 273.688 269.584 274.288 267.976 274.288C266.32 274.288 264.736 273.64 263.536 272.44C262.36 271.24 261.688 269.68 261.688 268C261.688 264.544 264.208 261.712 267.256 261.712ZM267.256 263.248C265.432 263.248 263.872 264.712 263.392 266.704H271.144C270.664 264.712 269.104 263.248 267.256 263.248Z" fill="#515151" fill-opacity="0.5"/>
<defs>
<filter id="filter0_d_601_633" x="0" y="0" width="424" height="424" filterUnits="userSpaceOnUse" color-interpolation-filters="sRGB">
<feFlood flood-opacity="0" result="BackgroundImageFix"/>
<feColorMatrix in="SourceAlpha" type="matrix" values="0 0 0 0 0 0 0 0 0 0 0 0 0 0 0 0 0 0 127 0" result="hardAlpha"/>
<feOffset dx="10" dy="15"/>
<feGaussianBlur stdDeviation="10"/>
<feComposite in2="hardAlpha" operator="out"/>
<feColorMatrix type="matrix" values="0 0 0 0 0.317647 0 0 0 0 0.317647 0 0 0 0 0.317647 0 0 0 0.5 0"/>
<feBlend mode="normal" in2="BackgroundImageFix" result="effect1_dropShadow_601_633"/>
<feBlend mode="normal" in="SourceGraphic" in2="effect1_dropShadow_601_633" result="shape"/>
</filter>
</defs>
</svg>
